<?xml version="1.0" encoding="UTF-8"?>
<svg width="197px" height="75px" viewBox="0 0 197 75" version="1.1" xmlns="http://www.w3.org/2000/svg" xmlns:xlink="http://www.w3.org/1999/xlink">
    <!-- Generator: Sketch 58 (84663) - https://sketch.com -->
    <title>Logo</title>
    <desc>Created with Sketch.</desc>
    <defs>
        <polygon id="path-1" points="0.173 0.128008626 16.3148 0.128008626 16.3148 20.1999 0.173 20.1999"></polygon>
        <polygon id="path-3" points="0.1743 0.7138 2.448 0.7138 2.448 3.1368 0.1743 3.1368"></polygon>
    </defs>
    <g id="Symbols" stroke="none" stroke-width="1" fill="none" fill-rule="evenodd">
        <g id="Header" transform="translate(-95.000000, -34.000000)">
            <g id="Logo" transform="translate(95.000000, 32.000000)">
                <g id="Group" transform="translate(0.000000, 8.000000)">
                    <polygon id="Fill-10" fill="#802988" points="2.3233 0.6849 2.3233 36.7679 11.7053 36.7679 11.7053 21.6119 17.5013 21.6119 17.5013 14.7479 11.7053 14.7479 11.7053 7.9059 18.2133 7.9059 18.2133 0.6849"></polygon>
                    <g id="Group-69" transform="translate(0.000000, 2.890000)">
                        <path d="M30.3167,19.814 C28.8757,20.869 28.0397,21.753 27.8097,22.466 C27.5787,23.179 27.4637,24.205 27.4637,25.542 C27.4637,27.073 27.5647,28.061 27.7647,28.505 C27.9647,28.951 28.3627,29.175 28.9577,29.175 C29.5227,29.175 29.8897,29 30.0607,28.651 C30.2297,28.302 30.3167,27.384 30.3167,25.898 L30.3167,19.814 Z M27.4637,15.758 L19.0177,15.758 L19.0177,13.775 C19.0177,11.487 19.2817,9.722 19.8087,8.481 C20.3347,7.241 21.3937,6.145 22.9847,5.194 C24.5737,4.244 26.6397,3.768 29.1797,3.768 C32.2247,3.768 34.5207,4.306 36.0657,5.383 C37.6117,6.461 38.5407,7.783 38.8527,9.35 C39.1647,10.918 39.3207,14.146 39.3207,19.034 L39.3207,33.878 L30.5617,33.878 L30.5617,31.242 C30.0117,32.299 29.3027,33.091 28.4327,33.62 C27.5647,34.147 26.5277,34.412 25.3247,34.412 C23.7497,34.412 22.3047,33.969 20.9897,33.086 C19.6747,32.202 19.0177,30.267 19.0177,27.28 L19.0177,24.851 C19.0177,22.637 19.3657,21.129 20.0647,20.327 C20.7627,19.524 22.4937,18.588 25.2577,17.519 C28.2147,16.36 29.7967,15.579 30.0057,15.178 C30.2127,14.777 30.3167,13.96 30.3167,12.727 C30.3167,11.182 30.2017,10.175 29.9717,9.707 C29.7407,9.239 29.3587,9.005 28.8237,9.005 C28.2147,9.005 27.8347,9.202 27.6867,9.595 C27.5377,9.99 27.4637,11.011 27.4637,12.66 L27.4637,15.758 Z" id="Fill-11" fill="#802988"></path>
                        <path d="M71.524,4.3021 L67.93,33.8781 L58.158,33.8781 C57.626,30.2631 57.004,25.5021 56.292,19.5911 C56.047,22.1921 55.71,24.8141 55.28,27.4591 L54.291,33.8781 L44.496,33.8781 L40.68,4.3021 L48.44,4.3021 C48.5,5.0751 49.155,10.7211 50.408,21.2401 C50.507,20.1581 51.181,14.5121 52.43,4.3021 L59.884,4.3021 L61.707,21.2401 C61.996,16.2941 62.684,10.6481 63.771,4.3021 L71.524,4.3021 Z" id="Fill-13" fill="#802988"></path>
                        <path d="M92.4742,15.4679 L83.9832,15.4679 L83.9832,12.0579 C83.9832,10.8699 83.8862,10.0639 83.6932,9.6399 C83.5002,9.2169 83.1432,9.0049 82.6232,9.0049 C82.1032,9.0049 81.7542,9.1909 81.5762,9.5619 C81.3972,9.9339 81.3092,10.7659 81.3092,12.0579 L81.3092,26.0099 C81.3092,27.0639 81.4422,27.8559 81.7102,28.3839 C81.9772,28.9109 82.3702,29.1749 82.8912,29.1749 C83.5002,29.1749 83.9132,28.8999 84.1282,28.3499 C84.3432,27.7999 84.4512,26.7599 84.4512,25.2289 L84.4512,21.7089 L92.4742,21.7089 C92.4592,24.0709 92.3732,25.8419 92.2182,27.0239 C92.0612,28.2049 91.5642,29.4159 90.7252,30.6569 C89.8852,31.8979 88.7882,32.8339 87.4372,33.4649 C86.0862,34.0949 84.4132,34.4119 82.4232,34.4119 C79.8822,34.4119 77.8682,33.9769 76.3842,33.1079 C74.8972,32.2399 73.8452,31.0209 73.2292,29.4539 C72.6132,27.8859 72.3052,25.6609 72.3052,22.7779 L72.3052,14.3759 C72.3052,11.8649 72.5572,9.9709 73.0632,8.6929 C73.5672,7.4149 74.6452,6.2749 76.2942,5.2719 C77.9432,4.2689 79.9492,3.7679 82.3122,3.7679 C84.6592,3.7679 86.6652,4.2659 88.3282,5.2609 C89.9922,6.2569 91.1002,7.5119 91.6492,9.0269 C92.1992,10.5429 92.4742,12.6899 92.4742,15.4679" id="Fill-15" fill="#802988"></path>
                        <path d="M106.2285,14.7996 L106.2285,12.6376 C106.2285,11.1076 106.1465,10.1196 105.9835,9.6736 C105.8195,9.2286 105.4855,9.0046 104.9805,9.0046 C104.3565,9.0046 103.9685,9.1946 103.8215,9.5736 C103.6725,9.9526 103.5995,10.9736 103.5995,12.6376 L103.5995,14.7996 L106.2285,14.7996 Z M115.2545,19.6136 L103.5995,19.6136 L103.5995,26.0096 C103.5995,27.3466 103.6955,28.2096 103.8885,28.5946 C104.0815,28.9816 104.4525,29.1746 105.0025,29.1746 C105.6855,29.1746 106.1425,28.9186 106.3735,28.4056 C106.6035,27.8926 106.7195,26.9006 106.7195,25.4296 L106.7195,21.5306 L115.2545,21.5306 L115.2545,23.7146 C115.2545,25.5426 115.1395,26.9456 114.9095,27.9256 C114.6785,28.9066 114.1405,29.9536 113.2935,31.0696 C112.4465,32.1826 111.3735,33.0196 110.0725,33.5766 C108.7715,34.1336 107.1415,34.4116 105.1805,34.4116 C103.2775,34.4116 101.6005,34.1366 100.1445,33.5866 C98.6875,33.0376 97.5555,32.2826 96.7455,31.3236 C95.9355,30.3666 95.3755,29.3116 95.0625,28.1606 C94.7515,27.0096 94.5945,25.3336 94.5945,23.1346 L94.5945,14.5096 C94.5945,11.9246 94.9435,9.8856 95.6425,8.3926 C96.3405,6.8986 97.4835,5.7546 99.0745,4.9606 C100.6645,4.1656 102.4925,3.7676 104.5565,3.7676 C107.0835,3.7676 109.1665,4.2466 110.8075,5.2056 C112.4495,6.1636 113.6015,7.4336 114.2625,9.0166 C114.9235,10.5986 115.2545,12.8236 115.2545,15.6916 L115.2545,19.6136 Z" id="Fill-17" fill="#802988"></path>
                        <path d="M127.233,0.3582 L127.233,5.0152 L129.661,5.0152 L129.661,9.6962 L127.233,9.6962 L127.233,25.5192 C127.233,27.4662 127.333,28.5512 127.533,28.7732 C127.734,28.9962 128.57,29.1072 130.041,29.1072 L130.041,33.8782 L126.408,33.8782 C124.358,33.8782 122.894,33.7922 122.017,33.6202 C121.14,33.4502 120.369,33.0562 119.7,32.4402 C119.032,31.8232 118.616,31.1162 118.452,30.3222 C118.288,29.5272 118.207,27.6592 118.207,24.7172 L118.207,9.6962 L116.267,9.6962 L116.267,5.0152 L118.207,5.0152 L118.207,0.3582 L127.233,0.3582 Z" id="Fill-19" fill="#802988"></path>
                        <path d="M142.2841,0.3582 L142.2841,5.0152 L144.7131,5.0152 L144.7131,9.6962 L142.2841,9.6962 L142.2841,25.5192 C142.2841,27.4662 142.3831,28.5512 142.5851,28.7732 C142.7851,28.9962 143.6211,29.1072 145.0921,29.1072 L145.0921,33.8782 L141.4601,33.8782 C139.4091,33.8782 137.9451,33.7922 137.0691,33.6202 C136.1921,33.4502 135.4201,33.0562 134.7511,32.4402 C134.0831,31.8232 133.6661,31.1162 133.5031,30.3222 C133.3391,29.5272 133.2581,27.6592 133.2581,24.7172 L133.2581,9.6962 L131.3191,9.6962 L131.3191,5.0152 L133.2581,5.0152 L133.2581,0.3582 L142.2841,0.3582 Z" id="Fill-21" fill="#802988"></path>
                        <polygon id="Fill-23" fill="#802988" points="196.1783 17.1342 181.0643 25.5062 165.9483 33.8782 165.9483 17.1342 165.9483 0.3892 181.0643 8.7622"></polygon>
                        <polygon id="Fill-25" fill="#802988" points="179.916 17.1342 164.803 25.5062 149.687 33.8782 149.687 17.1342 149.687 0.3892 164.803 8.7622"></polygon>
                        <g id="Group-29" transform="translate(0.000000, 38.000000)">
                            <mask id="mask-2" fill="white">
                                <use xlink:href="#path-1"></use>
                            </mask>
                            <g id="Clip-28"></g>
                            <path d="M5.2028,5.7009 C5.3108,5.0479 5.4208,4.4209 5.5378,3.8169 C5.6358,3.3039 5.7288,2.8799 5.8158,2.5519 L6.9338,2.3329 C7.6448,2.2019 8.3908,2.0679 9.1688,1.9359 C10.6298,1.6889 11.7198,1.7329 12.4628,1.7649 C12.8128,1.7809 13.1118,1.8019 13.3578,1.8259 C13.5968,1.8509 13.7958,1.8779 13.9538,1.9099 C14.1158,1.9429 14.2628,1.9749 14.4068,2.0099 L14.8738,2.0889 C15.0768,2.0889 15.3198,2.0519 15.5958,1.9819 C15.9338,1.8939 16.1698,1.6749 16.2648,1.3799 C16.2988,1.3099 16.3148,1.2229 16.3148,1.0959 C16.3148,0.9239 16.2408,0.6819 15.8898,0.5129 C15.6758,0.4109 15.3918,0.3319 15.0478,0.2799 C14.7188,0.2289 14.3258,0.1909 13.8798,0.1659 C12.9288,0.1109 11.7818,0.1129 10.7018,0.1909 C10.1188,0.2319 9.5558,0.2829 9.0138,0.3409 C8.4708,0.3989 7.9788,0.4619 7.5358,0.5279 C7.0958,0.5949 6.7168,0.6629 6.4338,0.7269 C5.7888,0.8089 5.2028,0.8749 4.6758,0.9249 C4.1458,0.9749 3.6748,1.0159 3.2598,1.0499 C2.4948,1.1159 1.9138,1.1839 1.5328,1.2509 C0.8688,1.3709 0.7698,1.7659 0.7698,1.9909 C0.7698,2.4239 0.9878,2.7129 1.3828,2.8039 C1.9518,2.9369 2.7228,2.9219 3.3798,2.8839 C3.5468,2.8759 3.7038,2.8619 3.8528,2.8429 C3.7858,3.1389 3.7308,3.4079 3.6868,3.6569 C3.6198,3.9769 3.5608,4.2959 3.5098,4.6159 C3.4608,4.9249 3.4198,5.1529 3.3928,5.2809 C3.3538,5.4129 3.3258,5.5719 3.3088,5.7489 C3.2928,5.9099 3.2678,6.0879 3.2358,6.2879 C3.2018,6.5359 3.1648,6.8049 3.1238,7.0939 C3.0828,7.3799 3.0378,7.6499 2.9898,7.9029 C2.9398,8.1589 2.8938,8.3859 2.8518,8.5829 C2.8318,8.6799 2.8118,8.7569 2.7948,8.8159 C2.5798,8.7919 2.3958,8.7699 2.2418,8.7499 C2.0528,8.7269 1.8968,8.6989 1.7718,8.6679 C1.6358,8.6349 1.5178,8.6089 1.4208,8.5899 C1.1138,8.5369 0.7708,8.5599 0.5178,8.6699 C0.2958,8.7689 0.1728,8.9499 0.1728,9.1809 C0.1728,9.4499 0.2698,9.6769 0.4608,9.8579 C0.6248,10.0139 0.8378,10.1399 1.0928,10.2339 C1.3358,10.3229 1.6058,10.3859 1.8948,10.4219 C2.0778,10.4439 2.2608,10.4589 2.4428,10.4669 C2.2778,11.4779 2.1258,12.4939 1.9918,13.4899 C1.8448,14.5639 1.7028,15.7089 1.5678,16.8909 L1.4158,18.2369 C1.4158,18.3569 1.4578,18.5159 1.5468,18.7359 C1.6308,18.9569 1.7788,19.1779 1.9828,19.3899 C2.1868,19.6049 2.4648,19.7899 2.8308,19.9549 C3.1918,20.1179 3.6608,20.1999 4.2258,20.1999 C4.6178,20.1999 5.0628,20.1699 5.5488,20.1109 C6.0368,20.0529 6.5518,19.9759 7.0788,19.8859 C7.6158,19.7929 8.1638,19.6839 8.7088,19.5609 C9.2578,19.4359 9.7988,19.3069 10.3318,19.1729 C10.9298,19.0239 11.5078,18.8629 12.0498,18.6969 C12.5888,18.5309 13.0708,18.3759 13.4968,18.2359 C13.9238,18.0929 14.2728,17.9639 14.5328,17.8549 C14.8378,17.7279 15.0708,17.6129 15.0708,17.3909 C15.0708,17.2449 15.0208,17.0889 14.9238,16.9299 C14.6938,16.5429 14.1128,16.5469 12.9778,16.8029 C12.4658,16.9179 11.9098,17.0619 11.3208,17.2299 C11.0418,17.3129 10.7588,17.3899 10.4708,17.4639 C10.1818,17.5379 9.8978,17.6079 9.6188,17.6729 C8.6378,17.9029 7.6778,18.1109 6.7658,18.2939 C5.8728,18.4719 5.1108,18.5629 4.4988,18.5629 C4.2958,18.5629 4.1308,18.5359 3.9948,18.4809 C3.8508,18.4249 3.7228,18.3549 3.6128,18.2749 C3.4868,18.1819 3.4258,18.1129 3.3958,18.0709 C3.3678,18.0319 3.3598,18.0109 3.3538,18.0139 C3.4528,16.6339 3.5938,15.2559 3.7738,13.9169 C3.9478,12.6229 4.1368,11.4849 4.3358,10.5289 C4.4958,10.4949 4.6988,10.4629 4.9408,10.4329 C5.2768,10.3919 5.6588,10.3559 6.0948,10.3219 C6.3918,10.2889 6.7028,10.2559 7.0248,10.2229 L7.9898,10.1229 C8.3788,10.0719 8.7328,10.0119 9.0428,9.9449 C9.3508,9.8779 9.6398,9.8109 9.9068,9.7449 C10.2518,9.6629 10.6028,9.5839 10.9568,9.5099 C11.2938,9.4389 11.6738,9.4029 12.0878,9.4029 L12.2868,9.4029 C12.3658,9.4029 12.3988,9.4119 12.4078,9.4149 L12.4858,9.4279 C12.5138,9.4279 12.5588,9.4319 12.6188,9.4389 C12.7058,9.4489 12.7688,9.4529 12.8098,9.4529 C13.0678,9.4529 13.3058,9.3919 13.5158,9.2709 C13.7678,9.1279 13.9018,8.9069 13.9018,8.6339 C13.9018,8.4369 13.8118,8.1609 13.3858,7.9639 C13.1048,7.8319 12.7768,7.7659 12.4108,7.7659 C12.1298,7.7659 11.7338,7.8119 11.1988,7.9059 L9.5758,8.1939 C9.1648,8.2749 8.7328,8.3539 8.2778,8.4289 L6.9218,8.6519 C6.4768,8.7259 6.0398,8.7839 5.6198,8.8239 C5.3108,8.8539 5.0208,8.8729 4.7548,8.8809 C4.7988,8.5319 4.8538,8.1119 4.9178,7.6209 C4.9998,6.9939 5.0948,6.3539 5.2028,5.7009" id="Fill-27" fill="#802988" mask="url(#mask-2)"></path>
                        </g>
                        <path d="M23.3195,47.1342 C23.2935,47.1892 23.2635,47.2532 23.2255,47.3282 C23.0625,47.6642 22.8385,48.0932 22.5405,48.6392 C22.2495,49.1702 21.9205,49.7622 21.5505,50.4152 C21.1875,51.0592 20.7985,51.7082 20.3965,52.3422 C19.9725,53.0122 19.5875,53.6022 19.2185,54.1472 C18.8445,54.7022 18.4915,55.1672 18.1705,55.5302 C17.9245,55.8102 17.7725,55.9372 17.6895,55.9952 C17.5555,56.0862 17.5075,56.0972 17.5175,56.0842 C17.4895,56.0302 17.4755,55.9632 17.4755,55.8822 C17.4755,55.8072 17.4825,55.7342 17.4945,55.6602 C17.5055,55.5942 17.5225,55.5312 17.5565,55.4412 C17.5685,55.3902 17.6025,55.2612 17.6565,55.0552 L17.6705,55.0002 C17.7345,54.7612 17.8295,54.4612 17.9535,54.1102 C18.0795,53.7532 18.2455,53.3432 18.4475,52.8922 C18.6485,52.4412 18.8935,51.9482 19.1735,51.4282 C19.4265,50.9672 19.7305,50.4832 20.0765,49.9902 C20.4235,49.4972 20.8035,49.0372 21.2055,48.6212 C21.6055,48.2082 22.0275,47.8522 22.4575,47.5642 C22.7495,47.3702 23.0385,47.2262 23.3195,47.1342 M24.4955,45.0532 C24.3415,45.0832 24.2065,45.1112 24.0865,45.1412 C23.7035,45.2412 23.3555,45.3512 23.0525,45.4692 C22.7465,45.5892 22.4705,45.7232 22.2315,45.8672 C21.9915,46.0132 21.7655,46.1632 21.5585,46.3132 C21.3485,46.4652 21.1395,46.6302 20.9425,46.7982 C20.3515,47.2752 19.7725,47.8862 19.2245,48.6142 C18.6805,49.3362 18.1095,50.2442 17.5275,51.3102 C17.3705,51.5952 17.2045,51.9342 17.0185,52.3472 C16.8425,52.7422 16.6755,53.1592 16.5235,53.5872 C16.3705,54.0162 16.2435,54.4352 16.1455,54.8292 C16.0425,55.2392 15.9825,55.5972 15.9685,55.9032 L15.9685,56.3392 C15.9685,56.5462 15.9915,56.7582 16.0365,56.9692 C16.0835,57.1912 16.1705,57.3932 16.2955,57.5692 C16.4395,57.7732 16.6575,57.8802 16.9255,57.8802 C17.4275,57.8802 17.8525,57.7392 18.1875,57.4592 C18.4935,57.2062 18.7885,56.9062 19.0645,56.5722 C19.5275,56.0262 19.9355,55.5062 20.2795,55.0252 C20.6215,54.5422 20.9385,54.0742 21.2215,53.6332 C21.5105,53.1802 21.7995,52.7082 22.0775,52.2312 C22.2055,52.0112 22.3415,51.7822 22.4845,51.5452 C22.4425,51.8172 22.3965,52.1212 22.3465,52.4562 C22.2685,52.9742 22.1895,53.5292 22.1105,54.1202 C22.0325,54.7102 21.9655,55.2472 21.9085,55.7272 C21.7955,56.5872 21.6875,57.5412 21.5895,58.5642 C21.4895,59.5852 21.3905,60.5422 21.2905,61.4362 C21.1775,62.4732 21.0705,63.5102 20.9715,64.5662 C20.9715,64.7002 20.9915,64.8432 21.0305,64.9932 C21.0735,65.1572 21.2165,65.3532 21.6495,65.3532 C22.0575,65.3532 22.3465,65.2462 22.5075,65.0372 C22.6585,64.8432 22.7345,64.6352 22.7345,64.4182 C22.7345,63.7852 22.7695,63.0182 22.8395,62.1362 C22.9125,61.2232 22.9945,60.3342 23.0835,59.4912 C23.1755,58.6182 23.2615,57.8342 23.3395,57.1402 C23.4145,56.4682 23.4625,55.9712 23.4775,55.7112 C23.6055,54.4012 23.7755,53.2052 23.9855,52.1562 C24.1945,51.1092 24.4085,50.1792 24.6205,49.3922 C24.8255,48.6312 25.0175,47.9962 25.1905,47.5022 C25.3435,47.0702 25.4515,46.7432 25.5035,46.5512 C25.7305,46.2692 25.8415,46.0202 25.8415,45.7922 C25.8415,45.5792 25.7555,45.3862 25.5935,45.2342 C25.3195,44.9772 24.8855,44.9792 24.4955,45.0532" id="Fill-30" fill="#802988"></path>
                        <path d="M33.7121,45.8582 C33.3191,45.8582 33.1151,46.0432 33.0141,46.1982 C32.9011,46.3712 32.7601,46.6412 32.5841,47.0252 C32.5141,47.1792 32.4331,47.3472 32.3431,47.5282 C32.2511,47.7122 32.1411,47.9242 32.0151,48.1642 C31.5541,49.0422 31.0621,49.9272 30.5511,50.7942 C30.0511,51.6412 29.5731,52.4152 29.1291,53.0952 C28.6991,53.7562 28.3121,54.3022 27.9811,54.7182 C27.7461,55.0132 27.6101,55.1522 27.5431,55.2162 C27.5211,55.1382 27.4951,54.9842 27.4951,54.6912 C27.4951,54.4522 27.5051,54.1702 27.5261,53.8412 C27.5481,53.5122 27.5781,53.1652 27.6211,52.7982 C27.6641,52.4312 27.7101,52.0642 27.7591,51.6962 C27.8071,51.3292 27.8611,50.9842 27.9191,50.6542 C27.9861,50.1762 28.0781,49.6682 28.1921,49.1472 C28.3021,48.6442 28.4161,48.1712 28.5311,47.7402 C28.6171,47.4112 28.6881,47.1142 28.7461,46.8482 C28.8061,46.5682 28.8421,46.3542 28.8571,46.1752 C28.8571,45.4182 28.4851,45.3052 28.2631,45.3052 C28.0161,45.3052 27.7991,45.4492 27.6181,45.7322 C27.4661,45.9672 27.3331,46.2632 27.2211,46.6122 C27.1151,46.9452 27.0161,47.3122 26.9291,47.7042 C26.8441,48.0862 26.7711,48.4552 26.7211,48.7712 C26.6861,48.8772 26.6661,48.9802 26.6601,49.0712 C26.6521,49.1502 26.6421,49.2212 26.6301,49.2842 C26.5161,49.8552 26.4201,50.3742 26.3411,50.8462 C26.2631,51.3162 26.1951,51.7762 26.1381,52.2262 C26.0811,52.6742 26.0371,53.1472 26.0091,53.6352 C25.9801,54.1292 25.9661,54.6772 25.9661,55.2652 C25.9661,55.9702 26.0281,56.4122 26.1631,56.6552 C26.2691,56.8462 26.4971,57.0722 26.9871,57.0722 C27.3781,57.0722 27.7781,56.8972 28.1771,56.5522 C28.5511,56.2312 28.9231,55.8142 29.2851,55.3142 C29.6401,54.8252 29.9981,54.2752 30.3501,53.6792 C30.7001,53.0862 31.0341,52.5012 31.3411,51.9422 C31.5821,51.5182 31.8151,51.1142 32.0421,50.7322 C32.1241,50.5932 32.2111,50.4532 32.3021,50.3132 C32.2821,50.4572 32.2641,50.6002 32.2481,50.7412 C32.1901,51.1112 32.1311,51.5202 32.0661,51.9672 C32.0031,52.4172 31.9411,52.8832 31.8841,53.3672 C31.8281,53.8522 31.7791,54.3402 31.7361,54.8312 C31.6921,55.3262 31.6701,55.8012 31.6701,56.2442 C31.6701,56.6562 31.7071,56.9502 31.7811,57.1402 C31.8471,57.3092 32.0191,57.5162 32.4651,57.5402 L32.4771,57.5402 C32.7401,57.5402 32.9241,57.4802 33.0391,57.3542 C33.1451,57.2362 33.1991,57.0782 33.1991,56.8832 L33.1991,56.7122 C33.1991,56.6502 33.1921,56.5842 33.1771,56.5182 C33.1771,56.4602 33.1731,56.4052 33.1661,56.3552 C33.1611,56.3152 33.1571,56.2782 33.1571,56.2442 C33.1571,55.9772 33.1641,55.6722 33.1771,55.3262 C33.1911,54.9802 33.2101,54.6232 33.2311,54.2562 C33.2531,53.8892 33.2801,53.5192 33.3151,53.1452 C33.3501,52.7722 33.3901,52.4232 33.4311,52.1032 C33.4731,51.8222 33.5301,51.5072 33.6001,51.1552 L33.8341,49.9872 C33.8761,49.7862 33.9161,49.5852 33.9521,49.3852 C33.9861,49.1952 34.0221,49.0052 34.0631,48.8152 C34.0811,48.7672 34.1021,48.6842 34.1421,48.4852 C34.1771,48.3102 34.2221,48.1112 34.2791,47.8872 L34.3121,47.7532 C34.3711,47.5162 34.4281,47.2872 34.4811,47.0662 C34.5831,46.6492 34.5831,46.6142 34.5831,46.5802 C34.5831,46.4002 34.5141,46.2342 34.3771,46.0852 C34.2341,45.9322 34.0161,45.8582 33.7121,45.8582" id="Fill-32" fill="#802988"></path>
                        <path d="M40.7588,47.3452 C40.5688,47.6982 40.3638,48.0952 40.1478,48.5292 L39.3668,50.0912 C39.0618,50.6052 38.7198,51.1502 38.3508,51.7112 C37.9828,52.2702 37.6368,52.7822 37.3108,53.2492 C36.9868,53.7142 36.7068,54.0932 36.4788,54.3772 C36.3628,54.5212 36.2848,54.6112 36.2328,54.6672 C36.2288,54.6472 36.2268,54.6262 36.2268,54.6052 C36.2268,54.5612 36.2288,54.5212 36.2338,54.4882 C36.2408,54.4452 36.2448,54.4082 36.2468,54.3762 C36.3718,53.8392 36.5048,53.3272 36.6438,52.8522 C36.7568,52.4432 36.8808,52.0302 37.0148,51.6152 C37.1418,51.2182 37.2728,50.9172 37.4048,50.7192 L37.4278,50.6722 C37.4378,50.6482 37.4898,50.5412 37.7328,50.0982 C37.9238,49.7492 38.1768,49.3592 38.4848,48.9392 C38.7838,48.5302 39.1248,48.1502 39.4988,47.8112 C39.8448,47.4972 40.1878,47.3452 40.5488,47.3452 L40.7588,47.3452 Z M43.0608,45.7622 C42.7548,45.5302 42.4108,45.4122 42.0398,45.4122 C41.3238,45.4122 40.7198,45.4982 40.2428,45.6682 C39.7718,45.8382 39.3548,46.0512 38.9988,46.3032 C38.8308,46.4242 38.6168,46.6232 38.3628,46.8932 C38.1098,47.1602 37.8438,47.4742 37.5728,47.8242 C37.2998,48.1752 37.0348,48.5532 36.7848,48.9472 C36.5308,49.3462 36.3218,49.7232 36.1638,50.0702 C35.8558,50.7572 35.6138,51.3552 35.4228,51.8952 C35.2318,52.4332 35.0788,52.9382 34.9698,53.3962 C34.8608,53.8502 34.7838,54.2662 34.7408,54.6342 C34.6978,55.0042 34.6758,55.3452 34.6758,55.6482 C34.6758,56.0032 34.7358,56.3182 34.8538,56.5842 C34.9518,56.8072 35.1698,57.0722 35.6538,57.0722 C35.8298,57.0722 36.0238,56.9582 36.2828,56.7012 C36.5008,56.4822 36.7458,56.2002 37.0118,55.8642 C37.2848,55.5192 37.5698,55.1282 37.8598,54.7032 C38.1528,54.2762 38.4388,53.8502 38.7238,53.4222 C39.1648,52.7542 39.5568,52.1402 39.8888,51.5972 C39.9228,51.5412 39.9558,51.4872 39.9868,51.4352 C39.9608,51.5862 39.9338,51.7482 39.9048,51.9192 C39.8408,52.2942 39.7668,52.7002 39.6828,53.1382 C39.5968,53.5782 39.5148,54.0052 39.4378,54.4162 L39.2238,55.5452 C39.1608,55.8832 39.1078,56.1522 39.0678,56.3392 C39.0488,56.4142 39.0398,56.5012 39.0398,56.6062 C39.0398,56.9582 39.2108,57.1222 39.3538,57.1962 C39.5238,57.2862 39.6528,57.3272 39.7618,57.3272 C40.0258,57.3272 40.2378,57.2602 40.3918,57.1252 C40.5458,56.9892 40.6388,56.7712 40.6718,56.4752 C40.7148,56.2452 40.7598,55.9622 40.8108,55.6262 C40.8608,55.2932 40.9168,54.9242 40.9808,54.5212 L41.1828,53.2552 C41.2538,52.8152 41.3388,52.3762 41.4368,51.9452 C41.5358,51.4782 41.6388,51.0142 41.7438,50.5552 C41.8498,50.0962 41.9568,49.6602 42.0628,49.2512 C42.1718,48.8292 42.2748,48.4642 42.3798,48.1332 C42.4688,47.8462 42.5558,47.5952 42.6388,47.3822 C42.9218,47.3242 43.1268,47.2512 43.2638,47.1602 C43.4498,47.0352 43.5488,46.8502 43.5488,46.6232 C43.5488,46.3012 43.3848,46.0112 43.0608,45.7622 L43.0608,45.7622 Z" id="Fill-34" fill="#802988"></path>
                        <path d="M46.2174,37.9399 C46.0854,37.9399 45.9294,38.0059 45.7254,38.1479 C45.5104,38.2979 45.3904,38.4779 45.3694,38.6809 C45.2844,39.4489 45.2054,40.2379 45.1344,41.0489 C45.0634,41.8579 45.0034,42.6449 44.9544,43.4059 L44.8154,45.5339 C44.7724,46.1939 44.7374,46.7519 44.7094,47.2069 C44.6794,47.7269 44.6334,48.2969 44.5714,48.8999 C44.5074,49.5239 44.4364,50.1569 44.3594,50.8009 C44.2804,51.4459 44.1994,52.0759 44.1144,52.6929 C44.0304,53.3079 43.9484,53.8609 43.8704,54.3479 L43.6794,55.5509 C43.6154,55.9459 43.5964,56.0319 43.5844,56.0719 C43.5014,56.4599 43.5574,56.7869 43.7514,57.0419 C43.9214,57.2669 44.1234,57.3809 44.3514,57.3809 C44.3984,57.3809 44.4474,57.3759 44.4754,57.3689 C44.6324,57.3519 44.7954,57.2909 44.9574,57.1889 C45.1534,57.0669 45.2654,56.8189 45.2994,56.4369 C45.3844,55.6289 45.4694,54.8739 45.5544,54.1739 C45.6404,53.4709 45.7274,52.7699 45.8204,52.0679 C45.9104,51.3809 45.9944,50.6649 46.0764,49.8799 C46.1564,49.1069 46.2314,48.2749 46.3004,47.4029 C46.3294,46.9629 46.3654,46.4529 46.4074,45.8719 C46.4504,45.2919 46.4994,44.6929 46.5564,44.0769 L46.7264,42.2469 C46.7834,41.6429 46.8334,41.0929 46.8754,40.5959 L46.9814,39.3399 C47.0104,38.9889 47.0244,38.7769 47.0244,38.7039 C47.0244,38.5329 46.9394,38.3609 46.7724,38.1929 C46.6044,38.0249 46.4174,37.9399 46.2174,37.9399" id="Fill-36" fill="#802988"></path>
                        <path d="M49.8012,43.3853 C50.1142,43.3853 50.3642,43.2933 50.5472,43.1113 C50.7102,42.9473 50.8352,42.7403 50.9172,42.4963 C50.9932,42.2683 51.0402,42.0203 51.0552,41.7603 C51.0692,41.5203 51.0842,41.3013 51.0982,41.0893 C51.0982,40.7023 51.0242,40.4363 50.8712,40.2743 C50.7172,40.1093 50.5152,40.0263 50.2692,40.0263 C49.9712,40.0263 49.7262,40.1633 49.5602,40.4213 C49.4212,40.6393 49.3152,40.8883 49.2452,41.1653 C49.1782,41.4323 49.1372,41.7043 49.1222,41.9723 C49.1082,42.2323 49.1012,42.4203 49.1012,42.5363 C49.1012,42.7293 49.1552,42.9143 49.2612,43.0843 C49.3852,43.2813 49.5722,43.3853 49.8012,43.3853" id="Fill-38" fill="#802988"></path>
                        <path d="M59.7007,45.7239 C60.0687,45.5849 60.1457,45.3719 60.1457,45.2179 C60.1457,44.9539 60.0217,44.7499 59.7877,44.6269 C59.5957,44.5259 59.3917,44.4779 59.1807,44.4769 C58.9837,44.5049 58.6407,44.5479 58.1537,44.6039 C57.6647,44.6609 57.1537,44.7219 56.6207,44.7849 C56.0877,44.8489 55.5987,44.9089 55.1497,44.9659 L54.5437,45.0429 C54.5477,44.9789 54.5547,44.8969 54.5667,44.7969 C54.5957,44.5559 54.6347,44.2789 54.6827,43.9629 L54.8437,42.9409 C54.9007,42.5799 54.9557,42.2379 55.0117,41.9119 C55.0687,41.5829 55.1167,41.2819 55.1527,41.0089 C55.1907,40.7149 55.2077,40.5169 55.2077,40.3859 C55.2077,40.1749 55.1697,39.9759 55.0957,39.7959 C55.0307,39.6379 54.8727,39.4499 54.4827,39.4499 L54.3997,39.4529 C54.1817,39.4749 53.9997,39.6329 53.8587,39.9219 C53.7457,40.1579 53.6477,40.4639 53.5667,40.8299 C53.4867,41.1949 53.4167,41.5949 53.3617,42.0179 C53.3037,42.4469 53.2547,42.8699 53.2117,43.2919 C53.1687,43.7119 53.1327,44.1009 53.1057,44.4559 C53.0837,44.7159 53.0627,44.9349 53.0417,45.1099 C53.0027,45.1119 52.9617,45.1129 52.9207,45.1129 L52.5487,45.1129 C52.2177,45.1129 51.8667,45.1029 51.5067,45.0819 C51.1307,45.0609 50.6947,45.0209 50.2357,44.9709 C50.1617,44.9519 50.0877,44.9429 50.0157,44.9429 L49.8447,44.9429 C49.6087,44.9429 49.3797,44.9839 49.1647,45.0629 C48.8917,45.1639 48.7407,45.3779 48.7407,45.6649 C48.7407,45.6679 48.7417,45.6709 48.7417,45.6739 C48.7177,45.7319 48.6907,45.7869 48.6727,45.8529 C48.6187,46.0439 48.5777,46.2549 48.5507,46.4779 L48.4657,47.1179 C48.4217,47.3649 48.3777,47.6999 48.3357,48.1129 L48.2077,49.3739 C48.1657,49.7979 48.1257,50.1979 48.0907,50.5719 L48.0157,51.3769 C47.9877,51.8299 47.9557,52.2349 47.9217,52.5939 C47.8857,52.9549 47.8497,53.3029 47.8147,53.6359 C47.7797,53.9659 47.7367,54.2899 47.6887,54.6039 L47.5287,55.6119 C47.4547,56.0269 47.4187,56.3099 47.4187,56.4779 C47.4187,56.8179 47.4827,57.0159 47.6237,57.1169 C47.7397,57.2019 47.8537,57.2429 47.9707,57.2429 C48.3207,57.2429 48.5637,57.1599 48.7157,56.9899 C48.8487,56.8369 48.9487,56.5799 49.0277,56.1879 C49.1437,55.7109 49.2347,55.0629 49.2987,54.2599 C49.3627,53.4669 49.4367,52.6159 49.5217,51.7059 C49.5657,51.1659 49.6187,50.6839 49.6807,50.2719 C49.7437,49.8469 49.8077,49.4289 49.8717,49.0179 C49.9357,48.6039 49.9937,48.1749 50.0427,47.7319 C50.0817,47.3909 50.1187,46.9999 50.1537,46.5589 C50.6497,46.5629 51.1047,46.5759 51.5047,46.5999 C51.9227,46.6239 52.3767,46.6379 52.8577,46.6419 C52.8357,46.8049 52.8127,47.0209 52.7857,47.2949 C52.7427,47.7279 52.6957,48.2479 52.6477,48.8509 C52.5967,49.4549 52.5437,50.1109 52.4877,50.8199 C52.4327,51.5009 52.3867,52.1889 52.3477,52.9239 C52.3127,53.6129 52.2807,54.2689 52.2527,54.8929 C52.2237,55.5329 52.2087,56.0509 52.2087,56.4779 C52.2087,56.7089 52.2527,56.9119 52.3377,57.0849 C52.4487,57.3029 52.6917,57.4129 53.0607,57.4129 C53.2807,57.4129 53.4497,57.3439 53.5617,57.2089 C53.6567,57.0959 53.7177,56.9589 53.7457,56.8009 C53.7697,56.6649 53.7817,56.5239 53.7817,56.3829 C53.7817,56.2569 53.7877,56.1419 53.8017,56.0179 L53.8447,54.9229 C53.8587,54.5729 53.8697,54.2249 53.8777,53.8739 C53.8827,53.5289 53.8987,53.1739 53.9197,52.8079 C53.9397,52.4399 53.9647,52.0439 53.9937,51.6209 L54.1307,49.9719 C54.1807,49.3839 54.2307,48.8309 54.2837,48.2859 L54.4077,46.9949 C54.4297,46.7709 54.4427,46.6269 54.4507,46.5309 C54.6787,46.4969 54.8787,46.4659 55.0517,46.4379 C55.2667,46.4019 55.4697,46.3649 55.6627,46.3299 C55.8507,46.2949 56.0437,46.2639 56.2397,46.2359 C56.4397,46.2069 56.6677,46.1719 56.9207,46.1289 C57.2147,46.0869 57.5337,46.0529 57.8757,46.0229 C58.2087,45.9979 58.5457,45.9619 58.8777,45.9159 C59.2057,45.8719 59.4827,45.8069 59.7007,45.7239" id="Fill-40" fill="#802988"></path>
                        <path d="M66.2991,45.5603 C66.0641,45.5603 65.8541,45.6683 65.6781,45.8813 C65.5321,46.0573 65.3611,46.3303 65.1541,46.7143 C64.9561,47.0833 64.6961,47.5703 64.3771,48.1733 C64.0641,48.7653 63.6191,49.5083 63.0531,50.3863 C62.9381,50.5723 62.7881,50.8263 62.6041,51.1463 C62.4191,51.4653 62.2141,51.8123 61.9881,52.1863 C61.7611,52.5623 61.5261,52.9443 61.2871,53.3343 C61.0491,53.7183 60.8181,54.0733 60.6011,54.3893 C60.3741,54.7173 60.1871,54.9653 60.0281,55.1493 C60.0181,55.1613 60.0081,55.1733 59.9981,55.1843 C60.0021,55.1633 60.0061,55.1423 60.0111,55.1203 C60.0401,54.9943 60.0711,54.8603 60.1071,54.7193 C60.1401,54.5843 60.1781,54.4533 60.2191,54.3313 C60.2591,54.2093 60.2921,54.1143 60.3201,54.0473 L60.3321,54.0063 C60.4041,53.6353 60.4631,53.3043 60.5141,53.0113 C60.5631,52.7223 60.6131,52.4433 60.6621,52.1743 L60.8121,51.3423 C60.8611,51.0613 60.9281,50.7393 61.0121,50.3723 C61.0971,49.9883 61.1831,49.5903 61.2681,49.1763 C61.3531,48.7633 61.4291,48.3753 61.4931,48.0113 C61.5571,47.6483 61.6101,47.3323 61.6541,47.0593 C61.6971,46.7873 61.7251,46.5943 61.7401,46.4703 C61.7571,46.2783 61.7221,46.0853 61.6371,45.8963 C61.5281,45.6593 61.2841,45.5393 60.9131,45.5393 C60.7761,45.5393 60.6671,45.5533 60.5761,45.5833 C60.4641,45.6223 60.3731,45.6993 60.3131,45.8063 C60.2681,45.8883 60.2301,45.9913 60.1971,46.1253 C60.1691,46.2393 60.1331,46.3893 60.0901,46.5723 C60.0471,46.7473 60.0031,46.9683 59.9581,47.2393 C59.9161,47.5033 59.8731,47.7963 59.8311,48.1173 C59.7891,48.4363 59.7431,48.7733 59.6931,49.1263 C59.6431,49.4793 59.5901,49.8243 59.5341,50.1643 C59.4061,50.9293 59.2781,51.6553 59.1521,52.3423 C59.0241,53.0283 58.9041,53.6413 58.7901,54.1783 C58.6761,54.7203 58.5841,55.1783 58.5131,55.5563 C58.4391,55.9473 58.4021,56.2213 58.4021,56.3923 C58.4021,56.6383 58.4531,56.8603 58.5541,57.0543 C58.6391,57.2183 58.8341,57.4133 59.2741,57.4133 C59.5241,57.4133 59.7571,57.3493 59.9681,57.2233 C60.1651,57.1043 60.3411,56.9583 60.4941,56.7903 C60.6381,56.6333 60.7771,56.4573 60.9081,56.2653 C61.0261,56.0893 61.1351,55.9313 61.2391,55.7833 L63.2181,52.6983 C63.5601,52.1713 63.8831,51.6593 64.1891,51.1603 C64.4951,50.6643 64.7611,50.2273 64.9891,49.8493 C64.9961,49.8373 65.0041,49.8243 65.0111,49.8123 C64.8931,50.3223 64.7641,50.9053 64.6241,51.5593 C64.4661,52.2833 64.3001,53.0753 64.1221,53.9343 C63.9441,54.7943 63.7711,55.6713 63.6001,56.5663 C63.3801,57.7143 63.2161,58.6243 63.0991,59.3503 C62.9781,60.0963 62.8831,60.7073 62.8121,61.1833 C62.7401,61.6623 62.6891,62.0303 62.6611,62.2873 C62.6331,62.5433 62.6111,62.7433 62.5961,62.9073 C62.5961,62.9473 62.5811,63.0663 62.5561,63.2613 L62.4611,63.9393 C62.4241,64.1843 62.3951,64.4143 62.3731,64.6313 C62.3511,64.8543 62.3411,64.9963 62.3411,65.0563 C62.3411,65.3143 62.3771,65.5313 62.4511,65.7183 C62.5061,65.8593 62.6591,66.0973 63.0621,66.0973 C63.3481,66.0973 63.5531,66.0093 63.6741,65.8343 C63.7691,65.6943 63.8331,65.5303 63.8661,65.3503 C63.8971,65.1803 63.9051,65.0033 63.8901,64.8243 C63.8771,64.6843 63.8771,64.5633 63.8911,64.4403 C63.8911,64.4193 63.9011,64.2913 64.0061,63.5433 C64.0841,62.9813 64.1791,62.3083 64.2931,61.5213 C64.4061,60.7343 64.5331,59.9053 64.6771,59.0343 C64.8171,58.1633 64.9511,57.3803 65.0801,56.6843 C65.2491,55.7113 65.4631,54.6883 65.7161,53.6433 L66.4391,50.6523 C66.6661,49.7163 66.8651,48.9053 67.0341,48.2163 C67.2111,47.5073 67.2961,47.0413 67.2961,46.7843 C67.2811,46.4163 67.1911,46.1223 67.0301,45.9093 C66.8561,45.6813 66.6031,45.5603 66.2991,45.5603" id="Fill-42" fill="#802988"></path>
                        <path d="M68.6176,54.0743 C68.4706,54.0743 68.3196,54.1153 68.1676,54.1953 C68.0266,54.2703 67.9016,54.3613 67.7976,54.4663 C67.6926,54.5713 67.6056,54.6833 67.5406,54.7973 C67.4646,54.9283 67.4276,55.0403 67.4276,55.1373 C67.4276,55.4503 67.5556,55.7373 67.8086,55.9893 C68.0606,56.2413 68.3836,56.3693 68.7656,56.3693 C69.0616,56.3693 69.3056,56.3383 69.5106,56.2753 C69.6696,56.2263 69.9356,56.0683 69.9356,55.5623 C69.9356,55.1443 69.8106,54.7893 69.5626,54.5073 C69.3086,54.2193 68.9906,54.0743 68.6176,54.0743" id="Fill-44" fill="#802988"></path>
                        <path d="M80.3484,41.1962 C80.0314,41.1962 79.8064,41.2972 79.6804,41.4972 C79.5784,41.6572 79.5114,41.8532 79.4814,42.0672 C79.3944,42.4742 79.3174,42.9612 79.2544,43.5122 C79.1904,44.0672 79.1344,44.6442 79.0824,45.2432 L78.9344,47.0202 C78.8844,47.6072 78.8314,48.1312 78.7744,48.5872 C78.7314,49.1962 78.6804,49.8472 78.6144,50.5412 C78.5524,51.2382 78.4954,51.9322 78.4444,52.6212 C78.3944,53.3102 78.3514,53.9862 78.3174,54.6472 C78.2814,55.3092 78.2624,55.9182 78.2624,56.4562 C78.2624,56.6692 78.3084,56.8802 78.3984,57.0842 C78.4774,57.2632 78.6614,57.4772 79.0914,57.4772 C79.4744,57.4772 79.6634,57.2862 79.7534,57.1252 C79.8654,56.9282 79.9204,56.6052 79.9204,56.1382 C79.9204,56.0142 79.9114,55.8952 79.8964,55.7802 C79.8834,55.6832 79.8764,55.5822 79.8764,55.4782 C79.8764,55.0702 79.8874,54.6182 79.9094,54.1362 C79.9304,53.6622 79.9554,53.1912 79.9834,52.7232 C80.0124,52.2562 80.0434,51.7962 80.0784,51.3432 L80.1754,50.0852 C80.2164,49.4712 80.2874,48.7372 80.3864,47.9032 L80.6744,45.4552 C80.7654,44.6612 80.8524,43.9482 80.9284,43.3182 C81.0094,42.6742 81.0474,42.2582 81.0474,42.0462 C81.0474,41.8372 80.9974,41.6492 80.9004,41.4902 C80.8194,41.3562 80.6574,41.1962 80.3484,41.1962" id="Fill-46" fill="#802988"></path>
                        <path d="M92.6527,45.2179 C92.6527,44.9549 92.5287,44.7509 92.2947,44.6269 C92.1027,44.5259 91.9167,44.4789 91.6887,44.4769 C91.4907,44.5049 91.1487,44.5479 90.6617,44.6039 C90.1707,44.6609 89.6607,44.7219 89.1277,44.7849 C88.5947,44.8489 88.1047,44.9089 87.6577,44.9659 L87.0507,45.0429 C87.0547,44.9779 87.0627,44.8969 87.0747,44.7949 C87.1017,44.5559 87.1407,44.2789 87.1907,43.9629 L87.3497,42.9399 C87.4057,42.5799 87.4627,42.2379 87.5197,41.9119 C87.5767,41.5829 87.6237,41.2819 87.6597,41.0099 C87.6967,40.7259 87.7147,40.5219 87.7147,40.3859 C87.7147,40.1739 87.6767,39.9749 87.6027,39.7969 C87.5387,39.6379 87.3807,39.4499 86.9887,39.4499 L86.9057,39.4519 C86.6877,39.4749 86.5067,39.6329 86.3647,39.9219 C86.2507,40.1599 86.1527,40.4649 86.0737,40.8309 C85.9917,41.2049 85.9227,41.6049 85.8677,42.0189 C85.8107,42.4469 85.7607,42.8709 85.7177,43.2919 C85.6747,43.7119 85.6397,44.0999 85.6117,44.4569 C85.5907,44.7169 85.5697,44.9349 85.5487,45.1099 C85.5097,45.1119 85.4687,45.1129 85.4287,45.1129 L85.0557,45.1129 C84.7247,45.1129 84.3747,45.1029 84.0137,45.0819 C83.6397,45.0609 83.2027,45.0209 82.7427,44.9709 C82.6687,44.9529 82.5947,44.9429 82.5227,44.9429 L82.3517,44.9429 C82.1137,44.9429 81.8857,44.9839 81.6727,45.0629 C81.3987,45.1639 81.2477,45.3779 81.2477,45.6649 C81.2477,45.9109 81.3417,46.1229 81.5257,46.2959 C81.7077,46.4699 81.9847,46.5569 82.3517,46.5569 C82.9707,46.5569 83.5297,46.5709 84.0107,46.5999 C84.4287,46.6239 84.8827,46.6379 85.3637,46.6419 C85.3427,46.8029 85.3197,47.0169 85.2927,47.2949 C85.2497,47.7279 85.2027,48.2469 85.1537,48.8519 C85.1047,49.4549 85.0507,50.1109 84.9937,50.8209 C84.9367,51.5379 84.8907,52.2459 84.8557,52.9239 C84.8197,53.6119 84.7877,54.2689 84.7587,54.8939 C84.7307,55.5329 84.7167,56.0509 84.7167,56.4779 C84.7167,56.7089 84.7607,56.9129 84.8457,57.0839 C84.9547,57.3019 85.1967,57.4129 85.5667,57.4129 C85.7867,57.4129 85.9567,57.3449 86.0697,57.2089 C86.1647,57.0939 86.2267,56.9569 86.2537,56.8009 C86.2767,56.6689 86.2877,56.5279 86.2877,56.3829 C86.2877,56.2569 86.2947,56.1419 86.3087,56.0179 C86.3227,55.6349 86.3367,55.2709 86.3527,54.9229 C86.3667,54.5729 86.3767,54.2239 86.3837,53.8749 C86.3907,53.5299 86.4047,53.1739 86.4277,52.7849 C86.4487,52.4229 86.4727,52.0339 86.5007,51.6209 L86.6377,49.9719 C86.6887,49.3839 86.7387,48.8309 86.7867,48.3139 C86.8357,47.7959 86.8787,47.3569 86.9147,46.9949 C86.9367,46.7719 86.9497,46.6269 86.9587,46.5309 C87.1857,46.4969 87.3867,46.4659 87.5577,46.4379 C87.7737,46.4019 87.9777,46.3649 88.1697,46.3299 C88.3587,46.2949 88.5497,46.2639 88.7467,46.2359 C88.9467,46.2069 89.1757,46.1719 89.4277,46.1289 C89.7057,46.0889 90.0187,46.0549 90.3837,46.0229 C90.7167,45.9979 91.0537,45.9619 91.3857,45.9159 C91.7117,45.8719 91.9887,45.8069 92.2077,45.7239 C92.5757,45.5849 92.6527,45.3719 92.6527,45.2179" id="Fill-48" fill="#802988"></path>
                        <path d="M92.3323,42.4932 C92.3323,43.1042 92.3773,43.5342 92.4713,43.8072 C92.6163,44.2332 92.8573,44.3222 93.0333,44.3222 L93.0433,44.3222 L93.0533,44.3222 C93.2353,44.3042 93.3613,44.2792 93.4523,44.2432 C93.5463,44.2052 93.6703,44.1132 93.7273,43.8842 C93.7573,43.7612 93.7833,43.6032 93.8053,43.4012 L93.9023,42.5612 C93.9453,42.2042 93.9803,41.8392 94.0093,41.4672 C94.0383,41.0952 94.0593,40.7532 94.0743,40.4372 C94.0873,40.1252 94.0983,39.8612 94.1053,39.6472 L94.1103,39.5032 C94.1133,39.3722 94.1163,39.2902 94.1163,39.2582 C94.1163,38.8712 93.9373,38.6572 93.7863,38.5452 C93.3573,38.2312 92.8283,38.2572 92.5993,38.6232 C92.4993,38.7812 92.4333,38.9642 92.3993,39.1782 C92.3683,39.3512 92.3463,39.5822 92.3323,39.8642 C92.3183,40.1522 92.3113,40.4542 92.3113,40.7692 C92.3113,41.1402 92.3133,41.4902 92.3223,41.8172 C92.3283,42.1412 92.3323,42.3662 92.3323,42.4932" id="Fill-50" fill="#802988"></path>
                        <path d="M101.0109,45.1553 C100.8019,45.0553 100.6299,45.0073 100.4849,45.0073 C100.2749,45.0073 100.0909,45.0373 99.9399,45.0963 L99.4619,45.2803 C99.3329,45.3383 99.1789,45.4103 98.9989,45.4953 C98.8189,45.5813 98.6059,45.6893 98.3559,45.8173 C98.1049,45.9463 97.8079,46.1073 97.4639,46.3003 C97.1249,46.4913 96.7149,46.7143 96.2309,46.9703 C95.5849,47.3283 95.0199,47.7003 94.5519,48.0753 C94.0839,48.4493 93.6809,48.8063 93.3539,49.1343 C93.1409,49.3463 92.9809,49.5443 92.8639,49.7393 C92.7329,49.9563 92.6739,50.1053 92.6779,50.2573 C92.7609,50.7243 93.0229,51.0633 93.4499,51.2603 C93.7859,51.4273 94.1299,51.5283 94.4739,51.5583 C94.8029,51.5873 95.0259,51.6023 95.1079,51.6013 C95.6359,51.6303 96.1209,51.6473 96.5629,51.6553 C96.9899,51.6623 97.3619,51.7003 97.6799,51.7683 C98.2069,51.8633 98.5939,51.9833 98.8329,52.1253 C99.0259,52.2403 99.1239,52.3583 99.1239,52.4763 C99.1239,52.5253 99.0989,52.6333 98.9339,52.8123 C98.7819,52.9793 98.5739,53.1593 98.3159,53.3503 C98.0569,53.5403 97.7479,53.7443 97.3959,53.9563 C97.0419,54.1673 96.6759,54.3793 96.3029,54.5863 C95.9629,54.7563 95.6119,54.9303 95.2509,55.1073 C94.8879,55.2853 94.5419,55.4603 94.2129,55.6313 C93.8859,55.8023 93.5799,55.9663 93.2939,56.1233 C93.0069,56.2803 92.7569,56.4233 92.5459,56.5513 C92.3019,56.6913 92.1409,56.8733 92.0679,57.0923 C91.9839,57.3393 92.0509,57.5773 92.2599,57.7673 C92.3749,57.8643 92.5039,57.9233 92.6419,57.9433 C92.7029,57.9513 92.7599,57.9553 92.8159,57.9553 C92.8739,57.9553 92.9299,57.9513 92.9819,57.9423 C93.0879,57.9243 93.1869,57.8933 93.2759,57.8473 C93.3339,57.8193 93.3799,57.7983 93.4159,57.7873 L93.4639,57.7653 C93.7899,57.5663 94.2699,57.2683 94.9019,56.8703 C95.5239,56.4793 96.2429,56.0893 97.0399,55.7113 C97.5039,55.4943 97.9919,55.2163 98.4919,54.8873 C98.9899,54.5613 99.4319,54.2413 99.8129,53.9353 C100.4729,53.3693 100.7799,52.9463 100.7799,52.6043 C100.7799,51.9283 100.4209,51.3863 99.7099,50.9913 C99.3989,50.8283 99.0219,50.6893 98.5889,50.5793 C98.1579,50.4703 97.7509,50.3933 97.3799,50.3513 C97.1309,50.3213 96.8479,50.3033 96.5409,50.2973 C96.2339,50.2893 95.9719,50.2723 95.7289,50.2443 C95.2839,50.2163 94.9139,50.1813 94.6289,50.1383 C94.5319,50.1243 94.4689,50.1083 94.4299,50.0943 C94.4659,50.0493 94.5319,49.9753 94.6529,49.8663 C94.8549,49.6863 95.1149,49.4803 95.4259,49.2513 C95.7439,49.0183 96.0959,48.7773 96.4679,48.5343 C96.8499,48.2883 97.2159,48.0583 97.5659,47.8493 C98.1429,47.5183 98.6739,47.2583 99.1459,47.0753 C99.6259,46.8873 100.0269,46.7213 100.3409,46.5793 C100.6259,46.4433 100.8469,46.3543 100.9939,46.3163 C101.2499,46.2493 101.3969,46.0513 101.3969,45.7713 C101.3969,45.4893 101.2629,45.2773 101.0109,45.1553" id="Fill-52" fill="#802988"></path>
                        <path d="M114.6794,47.3452 C114.4854,47.7072 114.2814,48.1042 114.0684,48.5292 L113.2874,50.0912 C112.9884,50.5952 112.6564,51.1242 112.2724,51.7112 C111.9034,52.2702 111.5574,52.7822 111.2294,53.2492 C110.9124,53.7072 110.6334,54.0862 110.3994,54.3772 C110.2834,54.5212 110.2044,54.6112 110.1534,54.6672 C110.1484,54.6472 110.1464,54.6262 110.1464,54.6052 C110.1464,54.5622 110.1484,54.5242 110.1544,54.4892 C110.1614,54.4462 110.1654,54.4082 110.1674,54.3762 C110.2894,53.8442 110.4234,53.3332 110.5654,52.8512 C110.6754,52.4512 110.7994,52.0352 110.9364,51.6152 C111.0624,51.2182 111.1934,50.9172 111.3254,50.7192 L111.3484,50.6732 C111.3564,50.6532 111.4024,50.5552 111.6534,50.0982 C111.8464,49.7472 112.0994,49.3572 112.4044,48.9402 C112.7054,48.5292 113.0474,48.1492 113.4194,47.8112 C113.7654,47.4972 114.1094,47.3452 114.4704,47.3452 L114.6794,47.3452 Z M116.9804,45.7632 C116.6764,45.5302 116.3334,45.4122 115.9604,45.4122 C115.2444,45.4122 114.6404,45.4982 114.1644,45.6682 C113.6934,45.8382 113.2764,46.0512 112.9204,46.3022 C112.7524,46.4242 112.5444,46.6172 112.2844,46.8932 C112.0314,47.1602 111.7654,47.4732 111.4934,47.8242 C111.2254,48.1702 110.9594,48.5472 110.7054,48.9472 C110.4544,49.3392 110.2464,49.7162 110.0834,50.0702 C109.7834,50.7422 109.5354,51.3562 109.3444,51.8952 C109.1504,52.4362 108.9984,52.9412 108.8894,53.3962 C108.7834,53.8452 108.7064,54.2622 108.6614,54.6332 C108.6184,54.9982 108.5974,55.3392 108.5974,55.6482 C108.5974,56.0042 108.6564,56.3202 108.7744,56.5852 C108.8724,56.8072 109.0904,57.0722 109.5734,57.0722 C109.7494,57.0722 109.9494,56.9552 110.2024,56.7022 C110.4174,56.4862 110.6624,56.2042 110.9324,55.8642 C111.2014,55.5222 111.4874,55.1322 111.7814,54.7022 C112.0724,54.2762 112.3594,53.8502 112.6444,53.4222 C113.0974,52.7362 113.4784,52.1382 113.8094,51.5962 C113.8444,51.5392 113.8774,51.4852 113.9094,51.4332 C113.8824,51.5852 113.8544,51.7472 113.8254,51.9192 C113.7614,52.2932 113.6884,52.7002 113.6034,53.1392 C113.5174,53.5782 113.4354,54.0052 113.3574,54.4162 L113.1454,55.5452 C113.0814,55.8832 113.0284,56.1522 112.9884,56.3412 C112.9694,56.4132 112.9614,56.4992 112.9614,56.6062 C112.9614,56.9602 113.1324,57.1232 113.2744,57.1962 C113.4424,57.2862 113.5724,57.3272 113.6824,57.3272 C113.9474,57.3272 114.1584,57.2602 114.3114,57.1262 C114.4654,56.9902 114.5594,56.7722 114.5934,56.4732 C114.6354,56.2442 114.6804,55.9622 114.7314,55.6262 C114.7814,55.2932 114.8384,54.9242 114.9014,54.5212 C114.9654,54.1172 115.0324,53.6952 115.1044,53.2552 C115.1714,52.8342 115.2564,52.3952 115.3564,51.9462 C115.4554,51.4782 115.5594,51.0142 115.6654,50.5552 C115.7714,50.0962 115.8764,49.6602 115.9824,49.2512 C116.0894,48.8392 116.1964,48.4632 116.2994,48.1332 C116.3874,47.8482 116.4764,47.5972 116.5594,47.3822 C116.8424,47.3242 117.0484,47.2502 117.1834,47.1602 C117.3704,47.0352 117.4684,46.8502 117.4684,46.6232 C117.4684,46.3002 117.3044,46.0102 116.9804,45.7632 L116.9804,45.7632 Z" id="Fill-54" fill="#802988"></path>
                        <path d="M121.3575,50.7098 C121.3575,51.1888 121.3235,51.5928 121.2555,51.9118 C121.1895,52.2238 121.0985,52.5058 120.9845,52.7478 C120.8645,53.0008 120.7405,53.2218 120.6065,53.4238 C120.4605,53.6408 120.3235,53.8858 120.1885,54.1698 C120.1335,54.2778 120.0585,54.4068 119.9635,54.5558 C119.8705,54.7028 119.7655,54.8498 119.6495,54.9928 C119.5295,55.1408 119.4245,55.2548 119.3275,55.3448 C119.2485,55.4178 119.2055,55.4328 119.2095,55.4378 C119.1395,55.4238 119.1145,55.4038 119.1115,55.3988 C119.0985,55.3548 119.0775,55.2298 119.0775,54.8808 C119.0775,54.5488 119.0985,54.1398 119.1385,53.6668 C119.1825,53.1848 119.2305,52.6868 119.2875,52.1698 C119.3445,51.6528 119.4075,51.1368 119.4785,50.6208 C119.5495,50.1038 119.6165,49.6288 119.6795,49.1968 L119.8405,48.1228 C119.8655,47.9568 119.8845,47.8288 119.8995,47.7378 C119.9425,47.7308 119.9805,47.7278 120.0145,47.7278 C120.3315,47.7278 120.5695,47.8368 120.7425,48.0598 C120.9365,48.3148 121.0825,48.6128 121.1745,48.9458 C121.2675,49.2878 121.3225,49.6308 121.3365,49.9628 C121.3505,50.3068 121.3575,50.5558 121.3575,50.7098 M128.1685,47.6108 C128.6995,48.0218 129.0675,48.5308 129.2655,49.1258 C129.4835,49.7908 129.5945,50.5028 129.5945,51.2418 C129.5945,51.6018 129.5195,52.0278 129.3705,52.5098 C129.2185,52.9968 129.0195,53.4718 128.7785,53.9198 C128.5405,54.3618 128.2725,54.7358 127.9835,55.0318 C127.4465,55.5808 126.9595,55.6078 126.5615,54.9058 C126.3375,54.5098 126.2105,54.0118 126.1855,53.4248 C126.1575,52.7658 126.1985,52.1188 126.3085,51.5028 C126.4195,50.8868 126.5735,50.3078 126.7685,49.7828 C126.9605,49.2608 127.1915,48.8008 127.4565,48.4128 C127.6815,48.0848 127.9205,47.8158 128.1685,47.6108 M150.3275,44.6268 C150.1355,44.5268 149.9505,44.4768 149.7345,44.4768 L149.7215,44.4768 C149.5225,44.5048 149.1815,44.5478 148.6945,44.6038 C148.2045,44.6608 147.6935,44.7218 147.1615,44.7848 C146.6285,44.8488 146.1385,44.9088 145.6925,44.9658 L145.0845,45.0428 C145.0885,44.9788 145.0955,44.8978 145.1065,44.7968 C145.1365,44.5568 145.1735,44.2798 145.2235,43.9628 L145.3825,42.9408 C145.4395,42.5798 145.4965,42.2378 145.5535,41.9108 C145.6095,41.5828 145.6565,41.2828 145.6925,41.0088 C145.7295,40.7248 145.7475,40.5208 145.7475,40.3858 C145.7475,40.1738 145.7095,39.9748 145.6355,39.7958 C145.5715,39.6378 145.4125,39.4498 145.0235,39.4498 L144.9405,39.4528 C144.7195,39.4758 144.5385,39.6338 144.4005,39.9208 C144.2865,40.1528 144.1915,40.4508 144.1065,40.8308 C144.0285,41.1878 143.9595,41.5868 143.9025,42.0178 C143.8435,42.4468 143.7945,42.8698 143.7515,43.2918 C143.7085,43.7118 143.6725,44.0998 143.6445,44.4568 C143.6245,44.7168 143.6025,44.9348 143.5815,45.1098 C143.5425,45.1118 143.5015,45.1128 143.4605,45.1128 L143.0885,45.1128 C142.7575,45.1128 142.4075,45.1028 142.0465,45.0818 C141.6725,45.0608 141.2355,45.0218 140.7765,44.9708 C140.7025,44.9518 140.6285,44.9428 140.5565,44.9428 L140.3855,44.9428 C140.1475,44.9428 139.9185,44.9838 139.7065,45.0628 C139.5415,45.1238 139.4265,45.2288 139.3565,45.3628 C139.2445,45.5358 139.0995,45.8128 138.9275,46.1878 C138.8575,46.3428 138.4775,47.3468 138.3885,47.5278 C138.2955,47.7118 138.1855,47.9238 138.0595,48.1638 C137.5965,49.0468 137.1035,49.9318 136.5955,50.7938 C136.0945,51.6438 135.6165,52.4178 135.1735,53.0958 C134.7425,53.7558 134.3575,54.3018 134.0265,54.7188 C133.7905,55.0138 133.6545,55.1528 133.5885,55.2168 C133.5665,55.1388 133.5405,54.9848 133.5405,54.6908 C133.5405,54.4528 133.5505,54.1668 133.5725,53.8408 C133.5925,53.5068 133.6235,53.1568 133.6665,52.7988 C133.7085,52.4308 133.7545,52.0638 133.8045,51.6958 C133.8535,51.3298 133.9075,50.9848 133.9635,50.6548 C134.0335,50.1588 134.1265,49.6518 134.2375,49.1478 C134.3475,48.6418 134.4615,48.1688 134.5755,47.7408 C134.6625,47.4118 134.6145,47.5328 134.6725,47.2648 C134.7335,46.9788 134.7075,46.9828 134.7235,46.8048 C134.7235,46.0468 134.3515,45.9338 134.1285,45.9338 C134.0995,45.9338 134.0715,45.9428 134.0425,45.9468 C133.9725,45.9358 133.9075,45.9198 133.8265,45.9198 C133.7935,45.9198 133.7595,45.9208 133.7145,45.9228 C133.5775,45.9368 132.6285,45.9398 132.3005,45.9328 C131.9605,45.9258 131.6075,45.9158 131.2385,45.9008 C130.8125,45.8868 130.3435,45.8728 129.8325,45.8588 C129.8325,45.8578 129.8035,45.8538 129.7285,45.8158 C129.6385,45.7718 129.5375,45.7268 129.4255,45.6818 C129.3045,45.6328 129.1755,45.5998 129.0415,45.5828 C128.8875,45.5668 128.7285,45.5948 128.5955,45.6618 C128.5375,45.6858 128.4865,45.7158 128.4295,45.7408 C128.4135,45.7388 128.4025,45.7328 128.3855,45.7298 C128.3575,45.7298 128.2145,45.7338 127.9535,45.7418 C127.6965,45.7488 126.3515,45.7638 126.0145,45.7838 L125.0045,45.8478 C124.6625,45.8698 124.3925,45.8868 124.1865,45.9018 C123.5805,45.9658 122.9935,45.9978 122.4405,45.9978 L122.2845,45.9968 C121.7235,45.9908 121.2825,45.9868 120.9615,45.9868 C120.7995,45.8648 120.6465,45.7888 120.4955,45.7568 C120.4085,45.7388 120.3135,45.7098 120.2125,45.6728 C120.2315,45.3858 120.2715,45.0248 120.3295,44.5978 C120.4015,44.0738 120.4875,43.5258 120.5845,42.9658 C120.6835,42.3928 120.7895,41.8278 120.9025,41.2678 C121.0165,40.7098 121.1155,40.2388 121.2015,39.8488 C121.2285,39.7008 121.2735,39.5188 121.3355,39.3048 C121.4055,39.0608 121.4395,38.8438 121.4395,38.6408 C121.4395,38.4548 121.3975,38.3028 121.3135,38.1848 C121.2125,38.0488 121.0315,37.9828 120.7595,37.9828 C120.5725,37.9828 120.3045,38.0508 120.0925,38.3778 C119.9535,38.5958 119.8445,38.8558 119.7685,39.1518 C119.6965,39.4298 119.6385,39.7228 119.5935,40.0478 C119.5515,40.3488 119.5095,40.6038 119.4695,40.8028 C119.4245,40.9838 119.3765,41.2218 119.3275,41.5108 C119.2785,41.7998 119.2185,42.1168 119.1485,42.4618 C119.0765,42.8108 119.0105,43.1718 118.9435,43.5438 C118.8815,43.9108 118.8175,44.2538 118.7545,44.5698 C118.6905,44.8888 118.6345,45.1688 118.5835,45.4098 L118.5085,45.7798 C118.3325,45.8758 118.1845,45.9788 118.0715,46.0858 C117.9075,46.2398 117.8245,46.4708 117.8245,46.7718 C117.8245,47.0338 117.9945,47.3018 118.3425,47.5868 C118.3335,47.6448 118.3205,47.7238 118.3055,47.8248 C118.2695,48.0518 118.2245,48.3348 118.1685,48.6748 C118.1115,49.0158 118.0535,49.3828 117.9965,49.7748 C117.9395,50.1658 117.8905,50.5178 117.8465,50.8328 C117.7325,51.7368 117.6385,52.5588 117.5695,53.2758 C117.4985,54.0118 117.4625,54.7308 117.4625,55.4288 C117.4765,55.6288 117.4955,55.8398 117.5175,56.0628 C117.5405,56.2998 117.5865,56.5198 117.6545,56.7178 C117.7295,56.9338 117.8405,57.1148 117.9825,57.2558 C118.1435,57.4168 118.3625,57.4978 118.6315,57.4978 C118.9865,57.4978 119.3215,57.3878 119.6255,57.1718 C119.9065,56.9728 120.1665,56.7358 120.3975,56.4668 C120.6255,56.2028 120.8255,55.9328 120.9925,55.6628 C121.1485,55.4118 121.2775,55.2208 121.3845,55.0798 L122.0235,54.0688 C122.2165,53.7658 122.3755,53.4498 122.5005,53.1278 C122.6255,52.8008 122.7225,52.4288 122.7875,52.0198 C122.8545,51.6108 122.8865,51.1128 122.8865,50.4968 C122.8865,50.0058 122.8685,49.5968 122.8325,49.2808 C122.7955,48.9608 122.7435,48.6768 122.6765,48.4378 C122.6095,48.2018 122.5265,47.9818 122.4285,47.7828 C122.3745,47.6768 122.3175,47.5648 122.2565,47.4488 C122.3335,47.4418 122.4205,47.4348 122.5175,47.4288 C122.7725,47.4158 123.0635,47.3978 123.3915,47.3758 C123.7175,47.3548 124.0675,47.3338 124.4435,47.3118 C124.8215,47.2908 125.1875,47.2658 125.5485,47.2368 C125.7775,47.2158 126.1515,47.1908 126.5485,47.1638 C126.0555,47.7788 125.6625,48.4408 125.3845,49.1298 C125.1045,49.8248 124.9105,50.5138 124.8075,51.1778 C124.7065,51.8298 124.6565,52.3678 124.6565,52.7738 C124.6565,53.1888 124.6815,53.6328 124.7305,54.0958 C124.7845,54.5728 124.8935,55.0108 125.0555,55.3978 C125.2225,55.8038 125.4715,56.1468 125.7965,56.4168 C126.1315,56.6968 126.5855,56.8378 127.1445,56.8378 C127.6065,56.8378 128.0335,56.7208 128.4155,56.4878 C128.7835,56.2618 129.1165,55.9628 129.4065,55.5988 C129.6925,55.2398 129.9405,54.8358 130.1455,54.3958 C130.3485,53.9638 130.5165,53.5208 130.6465,53.0788 C130.7765,52.6388 130.8745,52.2148 130.9395,51.8198 C131.0045,51.4188 131.0385,51.0818 131.0385,50.8168 C131.0385,50.2038 130.9795,49.6698 130.8615,49.2288 C130.7415,48.7858 130.5995,48.4058 130.4385,48.0998 C130.2765,47.7908 130.1065,47.5328 129.9305,47.3348 C129.9035,47.3038 129.8765,47.2738 129.8505,47.2448 C130.0605,47.2408 130.2835,47.2378 130.5185,47.2378 L131.7425,47.2378 C131.9715,47.2378 132.7735,47.2438 133.0775,47.2558 C133.0415,47.3828 133.0325,47.4398 132.9735,47.7048 C132.8885,48.0928 132.8165,48.4568 132.7665,48.7698 C132.7325,48.8728 132.7115,48.9748 132.7035,49.0748 C132.6975,49.1528 132.6875,49.2228 132.6755,49.2848 C132.5605,49.8548 132.4655,50.3748 132.3855,50.8458 C132.3085,51.3088 132.2405,51.7728 132.1835,52.2258 C132.1255,52.6758 132.0815,53.1498 132.0535,53.6348 C132.0245,54.1188 132.0105,54.6678 132.0105,55.2648 C132.0105,55.9588 132.0755,56.4138 132.2075,56.6548 C132.3135,56.8448 132.5405,57.0728 133.0305,57.0728 C133.4225,57.0728 133.8235,56.8978 134.2225,56.5518 C134.5945,56.2318 134.9675,55.8148 135.3305,55.3138 C135.6875,54.8198 136.0455,54.2708 136.3945,53.6798 C136.7275,53.1158 137.0525,52.5468 137.3875,51.9418 C137.6275,51.5178 137.8605,51.1138 138.0865,50.7328 C138.1695,50.5928 138.2565,50.4528 138.3475,50.3128 C138.3275,50.4568 138.3095,50.5998 138.2925,50.7408 C138.2355,51.1118 138.1755,51.5208 138.1125,51.9678 C138.0475,52.4168 137.9875,52.8828 137.9295,53.3668 C137.8725,53.8518 137.8235,54.3398 137.7805,54.8318 C137.7375,55.3348 137.7155,55.8098 137.7155,56.2438 C137.7155,56.6568 137.7515,56.9498 137.8255,57.1398 C137.8925,57.3088 138.0655,57.5158 138.5115,57.5408 L138.5235,57.5408 C138.7845,57.5408 138.9675,57.4798 139.0845,57.3548 C139.1905,57.2358 139.2455,57.0778 139.2455,56.8828 L139.2455,56.7128 C139.2455,56.6508 139.2375,56.5848 139.2235,56.5178 C139.2225,56.4588 139.2185,56.4028 139.2115,56.3548 C139.2055,56.3148 139.2015,56.2778 139.2015,56.2438 C139.2015,55.9768 139.2095,55.6718 139.2235,55.3258 C139.2365,54.9808 139.2545,54.6238 139.2755,54.2558 C139.2985,53.8898 139.3255,53.5198 139.3615,53.1448 C139.3965,52.7728 139.4345,52.4238 139.4755,52.1028 C139.5185,51.8218 139.5735,51.5078 139.6445,51.1558 L139.8785,49.9878 C139.9215,49.7868 139.9615,49.5858 139.9975,49.3838 C140.0305,49.1938 140.0675,49.0038 140.1085,48.8138 C140.1255,48.7668 140.1475,48.6838 140.1875,48.4848 C140.2225,48.3108 140.2675,48.1108 140.3245,47.8868 L140.3745,47.6838 C140.4125,47.5298 140.6045,46.9478 140.7265,46.5598 C141.2095,46.5638 141.6535,46.5768 142.0435,46.5998 C142.4625,46.6238 142.9175,46.6378 143.3975,46.6418 C143.3775,46.7998 143.3535,47.0128 143.3265,47.2938 C143.2825,47.7278 143.2365,48.2468 143.1885,48.8508 C143.1375,49.4548 143.0845,50.1108 143.0275,50.8208 C142.9685,51.5468 142.9225,52.2548 142.8895,52.9238 C142.8535,53.6118 142.8215,54.2688 142.7935,54.8928 C142.7645,55.5118 142.7495,56.0448 142.7495,56.4778 C142.7495,56.7108 142.7935,56.9148 142.8795,57.0828 C142.9875,57.3018 143.2295,57.4128 143.5995,57.4128 C143.8205,57.4128 143.9895,57.3448 144.1015,57.2098 C144.1955,57.0978 144.2575,56.9618 144.2865,56.8018 C144.3105,56.6668 144.3225,56.5258 144.3225,56.3828 C144.3225,56.2578 144.3275,56.1428 144.3425,56.0178 L144.3515,55.7948 C144.3625,55.4928 144.3735,55.2028 144.3855,54.9218 C144.3985,54.5718 144.4105,54.2238 144.4165,53.8758 C144.4245,53.5308 144.4375,53.1748 144.4595,52.8078 C144.4805,52.4398 144.5055,52.0438 144.5335,51.6218 L144.6715,49.9718 C144.7205,49.3838 144.7715,48.8308 144.8215,48.3138 L144.9495,46.9938 C144.9705,46.7728 144.9835,46.6278 144.9915,46.5308 C145.2205,46.4968 145.4205,46.4668 145.5925,46.4378 C145.8055,46.4018 146.0105,46.3658 146.2025,46.3298 C146.3915,46.2948 146.5845,46.2638 146.7805,46.2358 C146.9795,46.2068 147.2105,46.1718 147.4605,46.1288 C147.7545,46.0868 148.0745,46.0528 148.4165,46.0238 C148.7505,45.9978 149.0885,45.9608 149.4185,45.9158 C149.7445,45.8718 150.0215,45.8068 150.2405,45.7238 C150.6085,45.5848 150.6865,45.3718 150.6865,45.2178 C150.6865,44.9548 150.5625,44.7508 150.3275,44.6268" id="Fill-56" fill="#802988"></path>
                        <path d="M167.6201,44.997 C167.6001,44.862 167.5681,44.749 167.5191,44.662 C167.4471,44.536 167.2921,44.386 166.9641,44.386 C166.8141,44.386 166.6821,44.425 166.5671,44.494 C166.3621,44.521 166.0661,44.558 165.6671,44.604 C165.1771,44.661 164.6651,44.721 164.1321,44.785 C163.6001,44.849 163.1091,44.909 162.6621,44.966 L162.0561,45.043 C162.0601,44.979 162.0681,44.897 162.0791,44.796 C162.1071,44.556 162.1461,44.279 162.1961,43.963 L162.3551,42.941 C162.4121,42.58 162.4681,42.238 162.5251,41.911 C162.5821,41.583 162.6291,41.282 162.6641,41.01 C162.7011,40.726 162.7201,40.522 162.7201,40.386 C162.7201,40.176 162.6821,39.978 162.6081,39.794 C162.5421,39.637 162.3831,39.45 161.9951,39.45 L161.9121,39.452 C161.6931,39.475 161.5111,39.633 161.3711,39.921 C161.2581,40.156 161.1591,40.462 161.0791,40.83 C161.0001,41.184 160.9301,41.584 160.8731,42.019 C160.8161,42.447 160.7661,42.871 160.7241,43.291 C160.6801,43.712 160.6451,44.1 160.6181,44.456 C160.5951,44.716 160.5751,44.934 160.5541,45.109 C160.5141,45.112 160.4741,45.113 160.4331,45.113 L160.0601,45.113 C159.7301,45.113 159.3801,45.102 159.0191,45.082 C158.6441,45.061 158.2081,45.021 157.7481,44.97 C157.6721,44.952 157.5991,44.943 157.5271,44.943 L157.3571,44.943 C157.1191,44.943 156.8911,44.983 156.6771,45.063 C156.4031,45.164 156.2521,45.378 156.2521,45.665 C156.2521,45.908 156.3461,46.121 156.5311,46.297 C156.7131,46.47 156.9901,46.557 157.3571,46.557 C157.9771,46.557 158.5351,46.571 159.0151,46.599 C159.4351,46.624 159.8891,46.638 160.3691,46.641 C160.3491,46.8 160.3251,47.013 160.2971,47.295 C160.2551,47.728 160.2081,48.247 160.1591,48.851 C160.1091,49.455 160.0551,50.111 160.0001,50.821 C159.9411,51.552 159.8951,52.26 159.8621,52.924 C159.8251,53.612 159.7931,54.269 159.7651,54.893 C159.7371,55.503 159.7221,56.036 159.7221,56.478 C159.7221,56.71 159.7651,56.914 159.8501,57.084 C159.9601,57.303 160.2031,57.413 160.5721,57.413 C160.7941,57.413 160.9631,57.344 161.0741,57.209 C161.1691,57.095 161.2301,56.958 161.2581,56.803 C161.2811,56.675 161.2931,56.534 161.2931,56.382 C161.2931,56.257 161.3001,56.141 161.3131,56.018 L161.3571,54.922 C161.3701,54.572 161.3821,54.224 161.3891,53.875 C161.3951,53.53 161.4101,53.174 161.4311,52.808 C161.4521,52.44 161.4761,52.043 161.5051,51.622 L161.6471,49.919 C161.6971,49.351 161.7431,48.816 161.7921,48.313 L161.9191,46.994 C161.9411,46.771 161.9551,46.627 161.9631,46.531 C162.1911,46.497 162.3911,46.466 162.5641,46.437 C162.7781,46.402 162.9801,46.365 163.1741,46.33 C163.3641,46.295 163.5551,46.264 163.7511,46.236 C163.9521,46.207 164.1811,46.172 164.4321,46.129 C164.7271,46.087 165.0451,46.053 165.3871,46.023 C165.5821,46.008 165.7781,45.983 165.9751,45.961 C165.9361,46.184 165.9031,46.39 165.8921,46.479 C165.8651,46.699 165.8361,46.915 165.8081,47.118 C165.7671,47.355 165.7241,47.681 165.6791,48.112 L165.5521,49.369 C165.5081,49.795 165.4691,50.196 165.4341,50.573 L165.4171,50.747 C165.3911,51.033 165.3721,51.243 165.3601,51.377 C165.3311,51.83 165.2981,52.235 165.2641,52.594 C165.2281,52.955 165.1921,53.303 165.1571,53.636 C165.1211,53.965 165.0811,54.289 165.0311,54.604 L164.8731,55.611 C164.7981,56.026 164.7621,56.31 164.7621,56.478 C164.7621,56.818 164.8251,57.015 164.9651,57.116 C165.0791,57.2 165.1961,57.243 165.3141,57.243 C165.6641,57.243 165.9081,57.16 166.0581,56.99 C166.1901,56.839 166.2931,56.574 166.3711,56.187 C166.4861,55.71 166.5781,55.061 166.6421,54.26 C166.7061,53.467 166.7801,52.616 166.8661,51.705 C166.9051,51.189 166.9581,50.706 167.0231,50.273 C167.0861,49.847 167.1501,49.43 167.2151,49.018 C167.2791,48.604 167.3361,48.175 167.3861,47.732 C167.4371,47.281 167.6001,46.056 167.6431,45.469 L167.6431,45.329 C167.6531,45.29 167.6571,45.252 167.6571,45.218 C167.6571,45.138 167.6421,45.065 167.6201,44.997" id="Fill-58" fill="#802988"></path>
                        <path d="M167.6129,40.0259 C167.3149,40.0259 167.0689,40.1629 166.9029,40.4219 C166.7629,40.6389 166.6569,40.8889 166.5889,41.1649 C166.5209,41.4349 166.4799,41.7069 166.4659,41.9709 C166.4509,42.2319 166.4449,42.4199 166.4449,42.5359 C166.4449,42.7339 166.4989,42.9189 166.6049,43.0839 C166.7279,43.2809 166.9149,43.3849 167.1449,43.3849 C167.4569,43.3849 167.7069,43.2929 167.8899,43.1109 C168.0539,42.9479 168.1789,42.7399 168.2609,42.4949 C168.3379,42.2609 168.3849,42.0139 168.3979,41.7609 C168.4119,41.5209 168.4259,41.3029 168.4419,41.0889 C168.4419,40.7029 168.3679,40.4359 168.2139,40.2729 C168.0579,40.1089 167.8569,40.0259 167.6129,40.0259" id="Fill-60" fill="#802988"></path>
                        <path d="M181.8021,46.367 C181.8021,46.17 181.7371,45.97 181.6081,45.773 C181.4631,45.55 181.2371,45.433 180.9521,45.433 C180.6121,45.433 180.2571,45.56 179.8951,45.811 C179.5591,46.045 179.2301,46.336 178.8901,46.703 C178.5721,47.051 178.2551,47.444 177.9491,47.873 C177.6481,48.296 177.3701,48.711 177.1231,49.108 C176.8921,49.477 176.6861,49.809 176.5051,50.105 C176.5071,50.083 176.5081,50.061 176.5101,50.039 C176.5471,49.663 176.5861,49.269 176.6281,48.857 C176.6711,48.446 176.7091,48.049 176.7451,47.664 C176.7811,47.264 176.8001,46.952 176.8001,46.708 C176.8001,46.193 176.6891,45.859 176.4591,45.687 C175.9551,45.312 175.4741,45.405 174.9161,45.839 C174.6131,46.076 174.3081,46.377 174.0111,46.732 C173.7101,47.093 173.4181,47.486 173.1461,47.901 C172.8671,48.322 172.6171,48.714 172.3961,49.078 C172.3031,49.232 172.2151,49.377 172.1351,49.514 C172.1761,49.198 172.2161,48.87 172.2541,48.53 L172.3921,47.263 C172.4361,46.854 172.4571,46.575 172.4571,46.411 C172.4571,46.163 172.4221,45.929 172.3501,45.714 C172.2571,45.437 172.0381,45.284 171.7361,45.284 C171.4751,45.284 171.2651,45.346 171.1141,45.468 C170.9691,45.585 170.8641,45.735 170.8021,45.914 C170.7441,46.076 170.7121,46.255 170.7061,46.444 C170.6981,46.617 170.6941,46.79 170.6951,46.952 C170.6531,47.781 170.5851,48.583 170.4941,49.333 C170.4041,50.068 170.2971,50.802 170.1761,51.516 C170.0551,52.218 169.9411,52.896 169.8361,53.549 C169.7271,54.215 169.6441,54.857 169.5871,55.478 L169.5871,55.648 C169.5871,55.83 169.6171,55.998 169.6761,56.152 C169.7611,56.367 169.9881,56.476 170.3521,56.476 C170.7821,56.476 170.9941,56.284 171.0951,56.122 C171.2141,55.932 171.3101,55.647 171.3901,55.252 C171.4601,54.891 171.5561,54.435 171.6751,53.884 C171.7921,53.346 172.0141,52.7 172.3331,51.964 C172.5151,51.543 172.7441,51.044 173.0121,50.481 C173.2741,49.929 173.6401,49.331 174.1001,48.704 L174.3881,48.299 C174.5071,48.13 174.6301,47.961 174.7561,47.793 C174.8811,47.626 174.9971,47.486 175.1021,47.375 C175.1511,47.323 175.1861,47.294 175.2091,47.278 C175.2211,47.314 175.2271,47.359 175.2271,47.41 C175.2271,47.517 175.2181,47.615 175.1991,47.713 C175.1781,47.83 175.1591,47.939 175.1451,48.041 C175.0591,48.655 174.9911,49.196 174.9421,49.665 C174.8911,50.132 174.8261,50.669 174.7401,51.277 C174.6231,52.112 174.5121,52.831 174.4001,53.473 C174.2871,54.132 174.2001,54.792 174.1421,55.456 C174.1421,55.667 174.1571,55.868 174.1891,56.052 C174.2191,56.255 174.3711,56.497 174.9281,56.497 C175.1401,56.497 175.3371,56.439 175.5121,56.325 C175.7031,56.2 175.8241,56.007 175.8601,55.758 C175.9301,55.178 176.1001,54.476 176.3631,53.67 C176.6281,52.86 176.9691,52.001 177.3721,51.125 C177.5941,50.695 177.8561,50.25 178.1481,49.804 C178.4381,49.363 178.7291,48.952 179.0131,48.582 C179.2901,48.222 179.5461,47.92 179.7731,47.685 C179.9401,47.514 180.0421,47.441 180.0951,47.41 C180.1091,47.449 180.1241,47.526 180.1241,47.666 C180.1241,48.165 180.0871,48.774 180.0081,49.528 C179.9301,50.271 179.8451,51.023 179.7531,51.78 C179.6611,52.54 179.5751,53.25 179.4981,53.909 C179.4181,54.57 179.3781,55.076 179.3781,55.414 C179.3781,55.562 179.3861,55.72 179.4011,55.89 C179.4171,56.068 179.4481,56.234 179.4951,56.383 C179.5471,56.544 179.6211,56.683 179.7161,56.794 C179.8331,56.935 179.9951,57.009 180.1851,57.009 C180.5841,57.009 180.8441,56.89 180.9591,56.659 C181.0531,56.472 181.0991,56.246 181.0991,55.967 C181.0991,55.834 181.0911,55.692 181.0771,55.541 C181.0631,55.406 181.0571,55.272 181.0571,55.137 C181.0571,54.732 181.0681,54.378 181.0881,54.054 C181.1091,53.724 181.1371,53.389 181.1731,53.051 C181.2081,52.712 181.2481,52.347 181.2911,51.956 C181.3321,51.566 181.3821,51.12 181.4381,50.616 C181.4951,50.112 181.5551,49.522 181.6201,48.846 C181.6821,48.198 181.7411,47.419 181.8021,46.453 L181.8021,46.367 Z" id="Fill-62" fill="#802988"></path>
                        <path d="M185.6594,49.0596 C185.8824,48.6776 186.1384,48.2986 186.4214,47.9336 C186.7034,47.5686 186.9964,47.2476 187.2904,46.9816 C187.6184,46.6846 187.8164,46.6216 187.9244,46.6216 C188.3234,46.6216 188.6874,46.7216 189.0054,46.9186 C189.3444,47.1286 189.6324,47.3516 189.8484,47.5666 C189.9704,47.7136 190.0514,47.8696 190.0944,48.0436 C190.1394,48.2326 190.1624,48.4136 190.1624,48.5816 C190.1624,48.6986 190.1554,48.8026 190.1434,48.8906 C190.1384,48.9296 190.1324,48.9666 190.1264,49.0006 C189.8344,49.0596 189.4554,49.1156 188.9964,49.1696 C188.4504,49.2336 187.8984,49.2966 187.3364,49.3606 C186.7774,49.4246 186.2744,49.4816 185.8264,49.5306 C185.6404,49.5516 185.4934,49.5726 185.3774,49.5916 C185.4504,49.4346 185.5444,49.2576 185.6594,49.0596 M192.6084,52.9896 C192.4174,52.9896 192.1944,53.0556 191.9264,53.1926 C191.6914,53.3146 191.4534,53.4506 191.2204,53.5956 C190.8504,53.8236 190.4654,54.0656 190.0684,54.3216 C189.6694,54.5766 189.2724,54.8106 188.8894,55.0156 C188.5014,55.2236 188.1254,55.3986 187.7734,55.5366 C186.8914,55.8856 186.2244,55.7716 185.8094,55.2786 C185.5284,54.9456 185.3164,54.5676 185.1784,54.1536 C185.0354,53.7356 184.9414,53.3416 184.8994,52.9836 C184.8444,52.5046 184.8374,52.4096 184.8374,52.3916 L184.8374,51.5716 C184.8374,51.4476 184.8424,51.3366 184.8574,51.2356 C184.8604,51.2076 184.8644,51.1846 184.8684,51.1666 C184.9324,51.1516 185.0204,51.1316 185.1294,51.1066 C185.3174,51.0656 185.5444,51.0246 185.8074,50.9816 C186.0784,50.9396 186.3744,50.8896 186.6964,50.8326 C187.0114,50.7756 187.3314,50.7266 187.6544,50.6846 C188.0894,50.6286 188.4784,50.5866 188.8144,50.5576 L189.7414,50.4836 C190.0174,50.4626 190.2804,50.4416 190.5304,50.4196 C190.7904,50.3966 191.0564,50.3646 191.3214,50.3216 L191.4534,50.3006 L191.4914,50.1736 C191.5644,49.9236 191.6104,49.6866 191.6264,49.4686 C191.6404,49.2656 191.6484,49.0486 191.6484,48.8156 C191.6484,48.1366 191.4894,47.5566 191.1764,47.0906 C190.8714,46.6366 190.4964,46.2656 190.0604,45.9876 C189.6314,45.7136 189.1774,45.5116 188.7134,45.3866 C188.2434,45.2596 187.8604,45.1986 187.5424,45.1986 C187.1194,45.1986 186.6804,45.4116 186.2364,45.8316 C185.8244,46.2226 185.4314,46.6846 185.0694,47.2046 C184.7104,47.7226 184.3914,48.2446 184.1194,48.7596 C183.8874,49.2016 183.7194,49.5426 183.6114,49.7956 C183.4494,49.7946 183.2904,49.7916 183.1314,49.7856 C182.9234,49.7786 182.7684,49.7746 182.6674,49.7746 C182.4214,49.7746 182.2154,49.8196 182.0544,49.9076 C181.9174,49.9836 181.7544,50.1546 181.7544,50.5396 C181.7544,50.8616 181.8934,51.0216 182.0074,51.0976 C182.1384,51.1856 182.3014,51.2436 182.4914,51.2706 C182.6584,51.2926 182.8414,51.3006 183.0274,51.2926 L183.1174,51.2906 C183.1764,51.2906 183.2334,51.2936 183.2864,51.2976 L183.2864,52.0086 C183.2864,52.2246 183.2934,52.4806 183.3094,52.7726 C183.3234,53.0806 183.3684,53.3796 183.4414,53.6526 C183.5024,53.9106 183.5934,54.2276 183.7114,54.5956 C183.8404,54.9936 184.0284,55.3766 184.2704,55.7336 C184.5154,56.0996 184.8344,56.4196 185.2194,56.6836 C185.6164,56.9556 186.1044,57.0936 186.6694,57.0936 C187.0434,57.0936 187.4594,57.0186 187.9074,56.8706 C188.3384,56.7266 188.7854,56.5316 189.2374,56.2916 C189.6834,56.0546 190.1364,55.7866 190.5844,55.4946 C191.0324,55.2036 191.4634,54.9146 191.8734,54.6316 C191.9544,54.5786 192.0564,54.5176 192.1784,54.4496 C192.3094,54.3766 192.4394,54.3006 192.5684,54.2216 C192.7114,54.1346 192.8324,54.0416 192.9274,53.9456 C193.0524,53.8206 193.1164,53.6916 193.1164,53.5616 C193.1164,53.4476 193.0754,53.3296 192.9964,53.2106 C192.8734,53.0276 192.7184,52.9896 192.6084,52.9896" id="Fill-64" fill="#802988"></path>
                        <g id="Group-68" transform="translate(194.000000, 54.000000)">
                            <mask id="mask-4" fill="white">
                                <use xlink:href="#path-3"></use>
                            </mask>
                            <g id="Clip-67"></g>
                            <path d="M2.1103,1.2218 C1.9993,1.1118 1.9133,1.0228 1.8513,0.9528 C1.7593,0.8508 1.6213,0.7818 1.4283,0.7428 C1.3793,0.7238 1.3303,0.7138 1.2803,0.7138 L1.1933,0.7138 C0.8823,0.7138 0.6193,0.8648 0.4333,1.1488 C0.2613,1.4098 0.1743,1.6848 0.1743,1.9668 C0.1743,2.0998 0.1833,2.2008 0.2053,2.2848 C0.2703,2.4978 0.3723,2.6828 0.5053,2.8308 C0.6523,2.9978 0.8753,3.0998 1.1933,3.1368 L1.2803,3.1368 C1.6393,3.1368 1.9573,2.9838 2.2243,2.6828 C2.3723,2.5168 2.4483,2.3048 2.4483,2.0518 C2.4483,1.7768 2.3393,1.5028 2.1103,1.2218" id="Fill-66" fill="#FFFFFF" mask="url(#mask-4)"></path>
                        </g>
                    </g>
                </g>
                <path d="M20.5332031,2.72314453 L24.9892578,2.72314453 L24.9892578,4.77978516 L23.2055664,4.77978516 L23.2055664,6.72851562 L24.875,6.72851562 L24.875,8.68359375 L23.2055664,8.68359375 L23.2055664,10.9433594 L25.1669922,10.9433594 L25.1669922,13 L20.5332031,13 L20.5332031,2.72314453 Z M28.1503906,7.83935547 L25.7446289,7.83935547 L25.7446289,7.27441406 C25.7446289,6.6227181 25.8197421,6.12020033 25.9699707,5.7668457 C26.1201993,5.41349107 26.42171,5.10140109 26.8745117,4.83056641 C27.3273135,4.55973172 27.9155237,4.42431641 28.6391602,4.42431641 C29.5066775,4.42431641 30.1604796,4.57771656 30.6005859,4.88452148 C31.0406923,5.1913264 31.3051753,5.56795024 31.394043,6.0144043 C31.4829106,6.46085835 31.5273438,7.38020137 31.5273438,8.77246094 L31.5273438,13 L29.0327148,13 L29.0327148,12.2509766 C28.8761385,12.5514338 28.6740735,12.7767733 28.4265137,12.927002 C28.1789538,13.0772306 27.8837908,13.1523438 27.5410156,13.1523438 C27.0924457,13.1523438 26.6809101,13.0264498 26.3063965,12.7746582 C25.9318829,12.5228666 25.7446289,11.9716839 25.7446289,11.1210938 L25.7446289,10.4291992 C25.7446289,9.79866221 25.8440745,9.36914177 26.0429688,9.140625 C26.2237817,8.93288248 26.6476542,8.69366713 27.3145975,8.42297294 L27.8828514,8.19613831 C28.493505,7.94493587 28.823893,7.77099658 28.8740234,7.67431641 C28.9248049,7.57638065 28.9538226,7.39139345 28.961077,7.11935041 L28.9628906,6.97607422 C28.9628906,6.53596785 28.9300947,6.24926824 28.864502,6.1159668 C28.7989092,5.98266535 28.6899422,5.91601562 28.5375977,5.91601562 C28.3640942,5.91601562 28.2561851,5.97208603 28.2138672,6.08422852 C28.1715493,6.196371 28.1503906,6.48730234 28.1503906,6.95703125 L28.1503906,7.83935547 Z M28.9628906,8.99462891 C28.5524068,9.29508614 28.3143721,9.54687398 28.2487793,9.75 C28.1831865,9.95312602 28.1503906,10.2451153 28.1503906,10.6259766 C28.1503906,11.0618511 28.1789548,11.3432611 28.236084,11.4702148 C28.2932132,11.5971686 28.4064119,11.6606445 28.5756836,11.6606445 C28.7364917,11.6606445 28.841227,11.6109217 28.8898926,11.5114746 C28.9385582,11.4120275 28.9628906,11.1507183 28.9628906,10.7275391 L28.9628906,8.99462891 Z M37.6464844,7.26806641 L35.3740234,7.26806641 L35.3740234,6.81103516 L35.3685826,6.51230592 C35.3595146,6.2925129 35.3391115,6.14558956 35.307373,6.0715332 C35.2629392,5.9678543 35.1518564,5.91601562 34.9741211,5.91601562 C34.8302402,5.91601562 34.7223311,5.96362257 34.6503906,6.05883789 C34.5784502,6.15405321 34.5424805,6.29687405 34.5424805,6.48730469 C34.5424805,6.745444 34.5604653,6.93481385 34.5964355,7.05541992 C34.6324058,7.17602599 34.7403149,7.30826751 34.920166,7.45214844 C35.0800337,7.5800426 35.3895248,7.75976066 35.8486472,7.99130705 L36.027832,8.08056641 C36.7726274,8.44450052 37.2613921,8.78727053 37.4941406,9.10888672 C37.7268892,9.43050291 37.8432617,9.89810891 37.8432617,10.5117188 C37.8432617,11.1972691 37.7543954,11.7145979 37.5766602,12.0637207 C37.3989249,12.4128435 37.101646,12.6815583 36.6848145,12.869873 C36.2679829,13.0581878 35.7654652,13.1523438 35.1772461,13.1523438 C34.5255501,13.1523438 33.9680199,13.0507823 33.5046387,12.8476562 C33.0412574,12.6445302 32.7228199,12.3694679 32.5493164,12.0224609 C32.3758129,11.675454 32.2890625,11.1507197 32.2890625,10.4482422 L32.2890625,10.0419922 L34.5615234,10.0419922 L34.5615234,10.5751953 C34.5615234,11.0279971 34.5900876,11.3221022 34.6472168,11.4575195 C34.704346,11.5929369 34.8175447,11.6606445 34.9868164,11.6606445 C35.1687835,11.6606445 35.2957353,11.6151534 35.3676758,11.5241699 C35.4396162,11.4331864 35.4755859,11.2417007 35.4755859,10.949707 C35.4755859,10.5476868 35.4290369,10.2958989 35.3359375,10.1943359 C35.2386063,10.0927729 34.7413782,9.79232021 33.8442383,9.29296875 C33.0909793,8.86978955 32.6318368,8.48576019 32.4667969,8.14086914 C32.301757,7.79597809 32.2192383,7.38655836 32.2192383,6.91259766 C32.2192383,6.23974273 32.3081046,5.74357256 32.4858398,5.42407227 C32.6635751,5.10457197 32.9650858,4.85807378 33.3903809,4.68457031 C33.815676,4.51106684 34.3097303,4.42431641 34.8725586,4.42431641 C35.4311551,4.42431641 35.9061667,4.49519786 36.2976074,4.63696289 C36.6890482,4.77872792 36.9895009,4.96598191 37.1989746,5.19873047 C37.4084483,5.43147903 37.5354002,5.64729718 37.579834,5.84619141 C37.6242678,6.04508563 37.6464844,6.35611768 37.6464844,6.77929688 L37.6464844,7.26806641 Z M41.2329102,3.453125 L41.2329102,4.77978516 L41.9248047,4.77978516 L41.9248047,6.11279297 L41.2329102,6.11279297 L41.2329102,10.6196289 C41.2329102,11.1739937 41.2614743,11.4829098 41.3186035,11.5463867 C41.3757327,11.6098636 41.6137674,11.6416016 42.0327148,11.6416016 L42.0327148,13 L40.9980469,13 L40.5913991,12.9954377 C40.2160938,12.986313 39.9348154,12.9635012 39.7475586,12.927002 C39.4978829,12.8783363 39.277833,12.7661955 39.0874023,12.5905762 C38.8969717,12.4149568 38.7784833,12.2139497 38.7319336,11.9875488 C38.6853839,11.761148 38.6621094,11.2290081 38.6621094,10.3911133 L38.6621094,6.11279297 L38.1098633,6.11279297 L38.1098633,4.77978516 L38.6621094,4.77978516 L38.6621094,3.453125 L41.2329102,3.453125 Z M47.5297852,2.72314453 L47.5297852,10.9433594 L49.1547852,10.9433594 L49.1547852,13 L44.8574219,13 L44.8574219,2.72314453 L47.5297852,2.72314453 Z M55.527832,7.53466797 L55.527832,9.59765625 C55.527832,10.355147 55.4897465,10.9105614 55.4135742,11.263916 C55.337402,11.6172706 55.1744804,11.9473455 54.9248047,12.2541504 C54.675129,12.5609553 54.3545755,12.7873528 53.9631348,12.9333496 C53.571694,13.0793464 53.1220729,13.1523438 52.6142578,13.1523438 C52.0471977,13.1523438 51.5668965,13.0899258 51.1733398,12.9650879 C50.7797832,12.84025 50.4740408,12.6519381 50.2561035,12.4001465 C50.0381662,12.1483549 49.8826502,11.8436704 49.7895508,11.486084 C49.6964514,11.1284976 49.6499023,10.592126 49.6499023,9.87695312 L49.6499023,7.71875 C49.6499023,6.93586848 49.7345369,6.32438371 49.9038086,5.88427734 C50.0730803,5.44417098 50.3777647,5.09082165 50.8178711,4.82421875 C51.2579775,4.55761585 51.8207974,4.42431641 52.5063477,4.42431641 C53.0818714,4.42431641 53.5759257,4.51000891 53.9885254,4.68139648 C54.4011251,4.85278406 54.7195627,5.07600774 54.9438477,5.35107422 C55.1681326,5.6261407 55.3215328,5.90966651 55.4040527,6.20166016 C55.4865727,6.4936538 55.527832,6.9379853 55.527832,7.53466797 Z M52.9633789,10.784668 L52.9633789,6.89990234 L52.9590149,6.60612405 C52.950287,6.34229941 52.928467,6.16833538 52.8935547,6.08422852 C52.847005,5.97208603 52.7475594,5.91601562 52.5952148,5.91601562 C52.4428703,5.91601562 52.3413088,5.97208603 52.2905273,6.08422852 C52.2460935,6.18235319 52.2210998,6.40278345 52.2155456,6.74552476 L52.2143555,10.7021484 C52.2143555,11.0999369 52.2397458,11.3591303 52.2905273,11.4797363 C52.3413088,11.6003424 52.4407545,11.6606445 52.5888672,11.6606445 C52.7412117,11.6606445 52.8417153,11.6056321 52.8903809,11.4956055 C52.9390465,11.3855789 52.9633789,11.1486021 52.9633789,10.784668 Z M58.980957,4.57666016 L58.9365234,5.35107422 C59.1227223,5.0421534 59.3501777,4.81046627 59.6188965,4.65600586 C59.8876153,4.50154545 60.1975894,4.42431641 60.5488281,4.42431641 C60.9889345,4.42431641 61.3486314,4.52799375 61.6279297,4.73535156 C61.907228,4.94270937 62.0870764,5.20401861 62.1674805,5.51928711 C62.2478845,5.83455561 62.2880859,6.36034788 62.2880859,7.09667969 L62.2880859,13 L59.7236328,13 L59.7236328,7.16650391 C59.7236328,6.5867484 59.70459,6.23339907 59.6665039,6.10644531 C59.6284178,5.97949155 59.5226246,5.91601562 59.3491211,5.91601562 C59.167154,5.91601562 59.0528974,5.98901294 59.0063477,6.13500977 C58.9597979,6.28100659 58.9365234,6.67138354 58.9365234,7.30615234 L58.9365234,13 L56.3720703,13 L56.3720703,4.57666016 L58.980957,4.57666016 Z M69.0039062,2.72314453 L69.0039062,13 L66.4394531,13 L66.4394531,12.390625 C66.1940092,12.6445325 65.9358737,12.8349603 65.6650391,12.9619141 C65.3942044,13.0888678 65.1106786,13.1523438 64.8144531,13.1523438 C64.4166647,13.1523438 64.0717788,13.0476085 63.7797852,12.8381348 C63.4877915,12.6286611 63.3005375,12.3863946 63.2180176,12.1113281 C63.1354976,11.8362616 63.0942383,11.3876984 63.0942383,10.765625 L63.0942383,6.82373047 C63.0942383,6.17626629 63.1354976,5.71712375 63.2180176,5.44628906 C63.3005375,5.17545437 63.4899074,4.93741965 63.7861328,4.73217773 C64.0823583,4.52693582 64.4357076,4.42431641 64.8461914,4.42431641 C65.1635758,4.42431641 65.4545071,4.48144474 65.7189941,4.59570312 C65.9834811,4.70996151 66.2236317,4.88134651 66.4394531,5.10986328 L66.4394531,2.72314453 L69.0039062,2.72314453 Z M66.4394531,6.69677734 C66.4394531,6.38785653 66.4130048,6.18050183 66.3601074,6.07470703 C66.30721,5.96891223 66.2024747,5.91601562 66.0458984,5.91601562 C65.8935539,5.91601562 65.7909345,5.96362257 65.7380371,6.05883789 C65.6851397,6.15405321 65.6586914,6.36669757 65.6586914,6.69677734 L65.6586914,10.8227539 L65.6649095,11.0878016 C65.6752729,11.2847085 65.6985908,11.4217002 65.7348633,11.4987793 C65.7856448,11.60669 65.8829745,11.6606445 66.0268555,11.6606445 C66.1918954,11.6606445 66.3019203,11.6003424 66.3569336,11.4797363 C66.4050702,11.374206 66.4321468,11.1350305 66.4381638,10.7622039 L66.4394531,6.69677734 Z M75.7260742,7.53466797 L75.7260742,9.59765625 L75.7204319,10.072713 C75.7072665,10.5920196 75.6710615,10.9890846 75.6118164,11.263916 C75.5356442,11.6172706 75.3727226,11.9473455 75.1230469,12.2541504 C74.8733711,12.5609553 74.5528177,12.7873528 74.161377,12.9333496 C73.7699362,13.0793464 73.320315,13.1523438 72.8125,13.1523438 C72.2454399,13.1523438 71.7651387,13.0899258 71.371582,12.9650879 C70.9780254,12.84025 70.672283,12.6519381 70.4543457,12.4001465 C70.2364084,12.1483549 70.0808924,11.8436704 69.987793,11.486084 C69.8946935,11.1284976 69.8481445,10.592126 69.8481445,9.87695312 L69.8481445,7.71875 C69.8481445,6.93586848 69.9327791,6.32438371 70.1020508,5.88427734 C70.2713225,5.44417098 70.5760069,5.09082165 71.0161133,4.82421875 C71.4562196,4.55761585 72.0190395,4.42431641 72.7045898,4.42431641 C73.2801136,4.42431641 73.7741679,4.51000891 74.1867676,4.68139648 C74.5993673,4.85278406 74.9178049,5.07600774 75.1420898,5.35107422 C75.3663748,5.6261407 75.519775,5.90966651 75.6022949,6.20166016 C75.6848149,6.4936538 75.7260742,6.9379853 75.7260742,7.53466797 Z M73.1601314,10.9328669 L73.1616211,6.89990234 L73.1572571,6.60612405 C73.1485291,6.34229941 73.1267092,6.16833538 73.0917969,6.08422852 C73.0452472,5.97208603 72.9458015,5.91601562 72.793457,5.91601562 C72.6411125,5.91601562 72.539551,5.97208603 72.4887695,6.08422852 C72.4443357,6.18235319 72.419342,6.40278345 72.4137878,6.74552476 L72.4125977,10.7021484 L72.4188157,11.0091685 C72.4291792,11.2367341 72.452497,11.3935891 72.4887695,11.4797363 C72.539551,11.6003424 72.6389967,11.6606445 72.7871094,11.6606445 C72.9394539,11.6606445 73.0399574,11.6056321 73.088623,11.4956055 C73.1303364,11.401297 73.1541724,11.2137189 73.1601314,10.9328669 L73.1601314,10.9328669 Z M79.1791992,4.57666016 L79.1347656,5.35107422 C79.3209645,5.0421534 79.5484199,4.81046627 79.8171387,4.65600586 C80.0858575,4.50154545 80.3958316,4.42431641 80.7470703,4.42431641 C81.1871767,4.42431641 81.5468736,4.52799375 81.8261719,4.73535156 C82.1054701,4.94270937 82.2853186,5.20401861 82.3657227,5.51928711 C82.4461267,5.83455561 82.4863281,6.36034788 82.4863281,7.09667969 L82.4863281,13 L79.921875,13 L79.921875,7.16650391 C79.921875,6.5867484 79.9028322,6.23339907 79.8647461,6.10644531 C79.82666,5.97949155 79.7208668,5.91601562 79.5473633,5.91601562 C79.3653962,5.91601562 79.2511396,5.98901294 79.2045898,6.13500977 C79.1580401,6.28100659 79.1347656,6.67138354 79.1347656,7.30615234 L79.1347656,13 L76.5703125,13 L76.5703125,4.57666016 L79.1791992,4.57666016 Z" id="EastLondon" fill="#51B0BC" fill-rule="nonzero"></path>
            </g>
        </g>
    </g>
</svg>